<svg xmlns="http://www.w3.org/2000/svg" width="1200" height="680" viewBox="0 0 1200 680">
<rect x="0" y="0" width="1200" height="680" fill="white"/>
<line x1="90" y1="50" x2="90" y2="600" stroke="#222"/>
<line x1="90" y1="600" x2="1170" y2="600" stroke="#222"/>
<text x="600.0" y="24" text-anchor="middle" font-size="20" font-family="sans-serif">fred: Daily Heartbeat Dropout Counts</text>
<text x="600.0" y="664" text-anchor="middle" font-size="14" font-family="sans-serif">alaska local day</text>
<text x="28" y="340.0" transform="rotate(-90 28 340.0)" text-anchor="middle" font-size="14" font-family="sans-serif">dropout events</text>
<line x1="90" y1="600.0" x2="1170" y2="600.0" stroke="#ddd"/>
<text x="80" y="604.0" text-anchor="end" font-size="12" font-family="sans-serif">0</text>
<line x1="90" y1="490.0" x2="1170" y2="490.0" stroke="#ddd"/>
<text x="80" y="494.0" text-anchor="end" font-size="12" font-family="sans-serif">400</text>
<line x1="90" y1="380.0" x2="1170" y2="380.0" stroke="#ddd"/>
<text x="80" y="384.0" text-anchor="end" font-size="12" font-family="sans-serif">800</text>
<line x1="90" y1="270.0" x2="1170" y2="270.0" stroke="#ddd"/>
<text x="80" y="274.0" text-anchor="end" font-size="12" font-family="sans-serif">1200</text>
<line x1="90" y1="160.0" x2="1170" y2="160.0" stroke="#ddd"/>
<text x="80" y="164.0" text-anchor="end" font-size="12" font-family="sans-serif">1600</text>
<line x1="90" y1="50.0" x2="1170" y2="50.0" stroke="#ddd"/>
<text x="80" y="54.0" text-anchor="end" font-size="12" font-family="sans-serif">2000</text>
<rect x="105.0" y="595.0" width="60.0" height="4.9" fill="#d62728"/>
<text x="135.0" y="589.0" text-anchor="middle" font-size="10" font-family="sans-serif">18</text>
<text x="135.0" y="624" text-anchor="middle" font-size="11" font-family="sans-serif">03-05</text>
<rect x="195.0" y="590.6" width="60.0" height="9.4" fill="#d62728"/>
<text x="225.0" y="584.6" text-anchor="middle" font-size="10" font-family="sans-serif">34</text>
<text x="225.0" y="624" text-anchor="middle" font-size="11" font-family="sans-serif">03-06</text>
<rect x="285.0" y="589.3" width="60.0" height="10.7" fill="#d62728"/>
<text x="315.0" y="583.3" text-anchor="middle" font-size="10" font-family="sans-serif">39</text>
<text x="315.0" y="624" text-anchor="middle" font-size="11" font-family="sans-serif">03-07</text>
<rect x="375.0" y="597.2" width="60.0" height="2.8" fill="#d62728"/>
<text x="405.0" y="591.2" text-anchor="middle" font-size="10" font-family="sans-serif">10</text>
<text x="405.0" y="624" text-anchor="middle" font-size="11" font-family="sans-serif">03-08</text>
<rect x="465.0" y="593.1" width="60.0" height="6.9" fill="#d62728"/>
<text x="495.0" y="587.1" text-anchor="middle" font-size="10" font-family="sans-serif">25</text>
<text x="495.0" y="624" text-anchor="middle" font-size="11" font-family="sans-serif">03-09</text>
<rect x="555.0" y="486.7" width="60.0" height="113.3" fill="#d62728"/>
<text x="585.0" y="480.7" text-anchor="middle" font-size="10" font-family="sans-serif">412</text>
<text x="585.0" y="624" text-anchor="middle" font-size="11" font-family="sans-serif">03-10</text>
<rect x="645.0" y="536.8" width="60.0" height="63.2" fill="#d62728"/>
<text x="675.0" y="530.8" text-anchor="middle" font-size="10" font-family="sans-serif">230</text>
<text x="675.0" y="624" text-anchor="middle" font-size="11" font-family="sans-serif">03-11</text>
<rect x="735.0" y="163.6" width="60.0" height="436.4" fill="#d62728"/>
<text x="765.0" y="157.6" text-anchor="middle" font-size="10" font-family="sans-serif">1587</text>
<text x="765.0" y="624" text-anchor="middle" font-size="11" font-family="sans-serif">03-12</text>
<rect x="825.0" y="589.5" width="60.0" height="10.4" fill="#d62728"/>
<text x="855.0" y="583.5" text-anchor="middle" font-size="10" font-family="sans-serif">38</text>
<text x="855.0" y="624" text-anchor="middle" font-size="11" font-family="sans-serif">03-13</text>
<rect x="915.0" y="578.5" width="60.0" height="21.4" fill="#d62728"/>
<text x="945.0" y="572.5" text-anchor="middle" font-size="10" font-family="sans-serif">78</text>
<text x="945.0" y="624" text-anchor="middle" font-size="11" font-family="sans-serif">03-14</text>
<rect x="1005.0" y="471.9" width="60.0" height="128.2" fill="#d62728"/>
<text x="1035.0" y="465.9" text-anchor="middle" font-size="10" font-family="sans-serif">466</text>
<text x="1035.0" y="624" text-anchor="middle" font-size="11" font-family="sans-serif">03-15</text>
<rect x="1095.0" y="438.0" width="60.0" height="162.0" fill="#d62728"/>
<text x="1125.0" y="432.0" text-anchor="middle" font-size="10" font-family="sans-serif">589</text>
<text x="1125.0" y="624" text-anchor="middle" font-size="11" font-family="sans-serif">03-16</text>
</svg>