<svg xmlns="http://www.w3.org/2000/svg" width="1200" height="680" viewBox="0 0 1200 680">
<rect x="0" y="0" width="1200" height="680" fill="white"/>
<line x1="90" y1="50" x2="90" y2="600" stroke="#222"/>
<line x1="90" y1="600" x2="1170" y2="600" stroke="#222"/>
<text x="600.0" y="24" text-anchor="middle" font-size="20" font-family="sans-serif">fred: Heartbeat Dropout Outage Distribution</text>
<text x="600.0" y="664" text-anchor="middle" font-size="14" font-family="sans-serif">outage ms</text>
<text x="28" y="340.0" transform="rotate(-90 28 340.0)" text-anchor="middle" font-size="14" font-family="sans-serif">dropout events</text>
<line x1="90" y1="600.0" x2="1170" y2="600.0" stroke="#ddd"/>
<text x="80" y="604.0" text-anchor="end" font-size="12" font-family="sans-serif">0</text>
<line x1="90" y1="490.0" x2="1170" y2="490.0" stroke="#ddd"/>
<text x="80" y="494.0" text-anchor="end" font-size="12" font-family="sans-serif">400</text>
<line x1="90" y1="380.0" x2="1170" y2="380.0" stroke="#ddd"/>
<text x="80" y="384.0" text-anchor="end" font-size="12" font-family="sans-serif">800</text>
<line x1="90" y1="270.0" x2="1170" y2="270.0" stroke="#ddd"/>
<text x="80" y="274.0" text-anchor="end" font-size="12" font-family="sans-serif">1200</text>
<line x1="90" y1="160.0" x2="1170" y2="160.0" stroke="#ddd"/>
<text x="80" y="164.0" text-anchor="end" font-size="12" font-family="sans-serif">1600</text>
<line x1="90" y1="50.0" x2="1170" y2="50.0" stroke="#ddd"/>
<text x="80" y="54.0" text-anchor="end" font-size="12" font-family="sans-serif">2000</text>
<rect x="90.0" y="274.1" width="119.0" height="325.9" fill="#1f77b4"/>
<rect x="210.0" y="269.4" width="119.0" height="330.6" fill="#1f77b4"/>
<rect x="330.0" y="485.3" width="119.0" height="114.7" fill="#1f77b4"/>
<rect x="450.0" y="526.3" width="119.0" height="73.7" fill="#1f77b4"/>
<rect x="570.0" y="537.3" width="119.0" height="62.7" fill="#1f77b4"/>
<rect x="690.0" y="567.8" width="119.0" height="32.2" fill="#1f77b4"/>
<rect x="810.0" y="582.1" width="119.0" height="17.9" fill="#1f77b4"/>
<rect x="930.0" y="590.6" width="119.0" height="9.4" fill="#1f77b4"/>
<rect x="1050.0" y="597.2" width="119.0" height="2.8" fill="#1f77b4"/>
<text x="90.0" y="624" text-anchor="start" font-size="11" font-family="sans-serif">100</text>
<text x="210.0" y="624" text-anchor="start" font-size="11" font-family="sans-serif">200</text>
<text x="330.0" y="624" text-anchor="start" font-size="11" font-family="sans-serif">300</text>
<text x="450.0" y="624" text-anchor="start" font-size="11" font-family="sans-serif">400</text>
<text x="690.0" y="624" text-anchor="start" font-size="11" font-family="sans-serif">600</text>
<text x="810.0" y="624" text-anchor="start" font-size="11" font-family="sans-serif">700</text>
<text x="930.0" y="624" text-anchor="start" font-size="11" font-family="sans-serif">800</text>
<text x="1050.0" y="624" text-anchor="start" font-size="11" font-family="sans-serif">900</text>
</svg>