<svg xmlns="http://www.w3.org/2000/svg" width="1200" height="680" viewBox="0 0 1200 680">
<rect x="0" y="0" width="1200" height="680" fill="white"/>
<line x1="90" y1="50" x2="90" y2="600" stroke="#222"/>
<line x1="90" y1="600" x2="1170" y2="600" stroke="#222"/>
<text x="600.0" y="24" text-anchor="middle" font-size="20" font-family="sans-serif">fred: Idle-Online Bandwidth</text>
<text x="600.0" y="664" text-anchor="middle" font-size="14" font-family="sans-serif">idle category</text>
<text x="28" y="340.0" transform="rotate(-90 28 340.0)" text-anchor="middle" font-size="14" font-family="sans-serif">kbps</text>
<line x1="90" y1="600.0" x2="1170" y2="600.0" stroke="#ddd"/>
<text x="80" y="604.0" text-anchor="end" font-size="12" font-family="sans-serif">0.0</text>
<line x1="90" y1="490.0" x2="1170" y2="490.0" stroke="#ddd"/>
<text x="80" y="494.0" text-anchor="end" font-size="12" font-family="sans-serif">100.0</text>
<line x1="90" y1="380.0" x2="1170" y2="380.0" stroke="#ddd"/>
<text x="80" y="384.0" text-anchor="end" font-size="12" font-family="sans-serif">200.0</text>
<line x1="90" y1="270.0" x2="1170" y2="270.0" stroke="#ddd"/>
<text x="80" y="274.0" text-anchor="end" font-size="12" font-family="sans-serif">300.0</text>
<line x1="90" y1="160.0" x2="1170" y2="160.0" stroke="#ddd"/>
<text x="80" y="164.0" text-anchor="end" font-size="12" font-family="sans-serif">400.0</text>
<line x1="90" y1="50.0" x2="1170" y2="50.0" stroke="#ddd"/>
<text x="80" y="54.0" text-anchor="end" font-size="12" font-family="sans-serif">500.0</text>
<rect x="130.5" y="599.3" width="84.4" height="0.7" fill="#f58518"/>
<text x="172.7" y="593.3" text-anchor="middle" font-size="10" font-family="sans-serif">0.64</text>
<rect x="227.5" y="599.3" width="84.4" height="0.7" fill="#54a24b"/>
<text x="269.7" y="593.3" text-anchor="middle" font-size="10" font-family="sans-serif">0.64</text>
<text x="181.1" y="624" text-anchor="middle" font-size="11" font-family="sans-serif">heartbeat</text>
<rect x="400.5" y="582.6" width="84.4" height="17.4" fill="#f58518"/>
<text x="442.7" y="576.6" text-anchor="middle" font-size="10" font-family="sans-serif">15.81</text>
<rect x="497.5" y="533.6" width="84.4" height="66.4" fill="#54a24b"/>
<text x="539.7" y="527.6" text-anchor="middle" font-size="10" font-family="sans-serif">60.34</text>
<text x="451.1" y="624" text-anchor="middle" font-size="11" font-family="sans-serif">control status</text>
<rect x="670.5" y="307.8" width="84.4" height="292.2" fill="#f58518"/>
<text x="712.7" y="301.8" text-anchor="middle" font-size="10" font-family="sans-serif">265.60</text>
<rect x="767.5" y="307.8" width="84.4" height="292.2" fill="#54a24b"/>
<text x="809.7" y="301.8" text-anchor="middle" font-size="10" font-family="sans-serif">265.60</text>
<text x="721.1" y="624" text-anchor="middle" font-size="11" font-family="sans-serif">audio up</text>
<rect x="940.5" y="403.0" width="84.4" height="197.0" fill="#f58518"/>
<text x="982.7" y="397.0" text-anchor="middle" font-size="10" font-family="sans-serif">179.13</text>
<rect x="1037.5" y="292.4" width="84.4" height="307.6" fill="#54a24b"/>
<text x="1079.7" y="286.4" text-anchor="middle" font-size="10" font-family="sans-serif">279.63</text>
<text x="991.1" y="624" text-anchor="middle" font-size="11" font-family="sans-serif">video</text>
<rect x="100" y="58" width="12" height="12" fill="#f58518"/>
<text x="118" y="69" font-size="12" font-family="sans-serif">median active second</text>
<rect x="300" y="58" width="12" height="12" fill="#54a24b"/>
<text x="318" y="69" font-size="12" font-family="sans-serif">p95 active second</text>
</svg>