<svg xmlns="http://www.w3.org/2000/svg" width="1200" height="680" viewBox="0 0 1200 680">
<rect x="0" y="0" width="1200" height="680" fill="white"/>
<line x1="90" y1="50" x2="90" y2="600" stroke="#222"/>
<line x1="90" y1="600" x2="1170" y2="600" stroke="#222"/>
<text x="600.0" y="24" text-anchor="middle" font-size="20" font-family="sans-serif">fred: Online Latency Distribution</text>
<text x="600.0" y="664" text-anchor="middle" font-size="14" font-family="sans-serif">latency ms</text>
<text x="28" y="340.0" transform="rotate(-90 28 340.0)" text-anchor="middle" font-size="14" font-family="sans-serif">samples per bucket</text>
<text x="600.0" y="46" text-anchor="middle" font-size="12" fill="#555" font-family="sans-serif">10 ms bucketed distribution rendered as a curve</text>
<line x1="90" y1="600.0" x2="1170" y2="600.0" stroke="#ddd"/>
<text x="80" y="604.0" text-anchor="end" font-size="12" font-family="sans-serif">0</text>
<line x1="90" y1="490.0" x2="1170" y2="490.0" stroke="#ddd"/>
<text x="80" y="494.0" text-anchor="end" font-size="12" font-family="sans-serif">200000</text>
<line x1="90" y1="380.0" x2="1170" y2="380.0" stroke="#ddd"/>
<text x="80" y="384.0" text-anchor="end" font-size="12" font-family="sans-serif">400000</text>
<line x1="90" y1="270.0" x2="1170" y2="270.0" stroke="#ddd"/>
<text x="80" y="274.0" text-anchor="end" font-size="12" font-family="sans-serif">600000</text>
<line x1="90" y1="160.0" x2="1170" y2="160.0" stroke="#ddd"/>
<text x="80" y="164.0" text-anchor="end" font-size="12" font-family="sans-serif">800000</text>
<line x1="90" y1="50.0" x2="1170" y2="50.0" stroke="#ddd"/>
<text x="80" y="54.0" text-anchor="end" font-size="12" font-family="sans-serif">1000000</text>
<polygon points="90.0,600.0 90.0,529.9 141.4,236.5 192.9,221.1 244.3,439.8 295.7,486.7 347.1,495.0 398.6,517.1 450.0,514.4 501.4,524.1 552.9,545.4 604.3,563.2 655.7,576.7 707.1,583.1 758.6,588.3 810.0,592.7 861.4,594.9 912.9,596.3 964.3,597.4 1015.7,597.8 1067.1,598.6 1118.6,598.8 1170.0,599.0 1170.0,600.0" fill="#1f77b4" fill-opacity="0.16" stroke="none"/>
<polyline fill="none" stroke="#1f77b4" stroke-width="3" stroke-linejoin="round" stroke-linecap="round" points="90.0,529.9 141.4,236.5 192.9,221.1 244.3,439.8 295.7,486.7 347.1,495.0 398.6,517.1 450.0,514.4 501.4,524.1 552.9,545.4 604.3,563.2 655.7,576.7 707.1,583.1 758.6,588.3 810.0,592.7 861.4,594.9 912.9,596.3 964.3,597.4 1015.7,597.8 1067.1,598.6 1118.6,598.8 1170.0,599.0"/>
<text x="90.0" y="624" text-anchor="middle" font-size="11" font-family="sans-serif">20</text>
<text x="244.3" y="624" text-anchor="middle" font-size="11" font-family="sans-serif">50</text>
<text x="398.6" y="624" text-anchor="middle" font-size="11" font-family="sans-serif">80</text>
<text x="552.9" y="624" text-anchor="middle" font-size="11" font-family="sans-serif">110</text>
<text x="707.1" y="624" text-anchor="middle" font-size="11" font-family="sans-serif">140</text>
<text x="861.4" y="624" text-anchor="middle" font-size="11" font-family="sans-serif">170</text>
<text x="1015.7" y="624" text-anchor="middle" font-size="11" font-family="sans-serif">200</text>
<text x="1170.0" y="624" text-anchor="middle" font-size="11" font-family="sans-serif">230</text>
</svg>