<svg xmlns="http://www.w3.org/2000/svg" width="1440" height="820" viewBox="0 0 1440 820">
<rect x="0" y="0" width="1440" height="820" fill="white"/>
<line x1="90" y1="55" x2="90" y2="650" stroke="#222"/>
<line x1="90" y1="650" x2="1400" y2="650" stroke="#222"/>
<text x="720.0" y="28" text-anchor="middle" font-size="22" font-family="sans-serif">fred: Router Impairment Heartbeat Count</text>
<text x="30" y="410.0" transform="rotate(-90 30 410.0)" text-anchor="middle" font-size="14" font-family="sans-serif">messages in 4 s phase</text>
<line x1="90" y1="650.0" x2="1400" y2="650.0" stroke="#ddd"/>
<text x="80" y="654.0" text-anchor="end" font-size="12" font-family="sans-serif">0</text>
<line x1="90" y1="531.0" x2="1400" y2="531.0" stroke="#ddd"/>
<text x="80" y="535.0" text-anchor="end" font-size="12" font-family="sans-serif">4</text>
<line x1="90" y1="412.0" x2="1400" y2="412.0" stroke="#ddd"/>
<text x="80" y="416.0" text-anchor="end" font-size="12" font-family="sans-serif">8</text>
<line x1="90" y1="293.0" x2="1400" y2="293.0" stroke="#ddd"/>
<text x="80" y="297.0" text-anchor="end" font-size="12" font-family="sans-serif">12</text>
<line x1="90" y1="174.0" x2="1400" y2="174.0" stroke="#ddd"/>
<text x="80" y="178.0" text-anchor="end" font-size="12" font-family="sans-serif">16</text>
<line x1="90" y1="55.0" x2="1400" y2="55.0" stroke="#ddd"/>
<text x="80" y="59.0" text-anchor="end" font-size="12" font-family="sans-serif">20</text>
<rect x="109.6" y="174.0" width="54.3" height="476.0" fill="#d62728"/>
<text x="136.8" y="166.0" text-anchor="middle" font-size="10" font-family="sans-serif">16</text>
<text x="136.8" y="668.0" transform="rotate(45 136.8 668.0)" text-anchor="start" font-size="11" font-family="sans-serif">base-start</text>
<rect x="203.2" y="174.0" width="54.3" height="476.0" fill="#d62728"/>
<text x="230.4" y="166.0" text-anchor="middle" font-size="10" font-family="sans-serif">16</text>
<text x="230.4" y="668.0" transform="rotate(45 230.4 668.0)" text-anchor="start" font-size="11" font-family="sans-serif">1024k</text>
<rect x="296.8" y="203.8" width="54.3" height="446.2" fill="#d62728"/>
<text x="323.9" y="195.8" text-anchor="middle" font-size="10" font-family="sans-serif">15</text>
<text x="323.9" y="668.0" transform="rotate(45 323.9 668.0)" text-anchor="start" font-size="11" font-family="sans-serif">512k</text>
<rect x="390.4" y="203.8" width="54.3" height="446.2" fill="#d62728"/>
<text x="417.5" y="195.8" text-anchor="middle" font-size="10" font-family="sans-serif">15</text>
<text x="417.5" y="668.0" transform="rotate(45 417.5 668.0)" text-anchor="start" font-size="11" font-family="sans-serif">256k</text>
<rect x="483.9" y="203.8" width="54.3" height="446.2" fill="#d62728"/>
<text x="511.1" y="195.8" text-anchor="middle" font-size="10" font-family="sans-serif">15</text>
<text x="511.1" y="668.0" transform="rotate(45 511.1 668.0)" text-anchor="start" font-size="11" font-family="sans-serif">128k</text>
<rect x="577.5" y="174.0" width="54.3" height="476.0" fill="#d62728"/>
<text x="604.6" y="166.0" text-anchor="middle" font-size="10" font-family="sans-serif">16</text>
<text x="604.6" y="668.0" transform="rotate(45 604.6 668.0)" text-anchor="start" font-size="11" font-family="sans-serif">64k</text>
<rect x="671.1" y="174.0" width="54.3" height="476.0" fill="#d62728"/>
<text x="698.2" y="166.0" text-anchor="middle" font-size="10" font-family="sans-serif">16</text>
<text x="698.2" y="668.0" transform="rotate(45 698.2 668.0)" text-anchor="start" font-size="11" font-family="sans-serif">loss 1%</text>
<rect x="764.6" y="174.0" width="54.3" height="476.0" fill="#d62728"/>
<text x="791.8" y="166.0" text-anchor="middle" font-size="10" font-family="sans-serif">16</text>
<text x="791.8" y="668.0" transform="rotate(45 791.8 668.0)" text-anchor="start" font-size="11" font-family="sans-serif">loss 2%</text>
<rect x="858.2" y="174.0" width="54.3" height="476.0" fill="#d62728"/>
<text x="885.4" y="166.0" text-anchor="middle" font-size="10" font-family="sans-serif">16</text>
<text x="885.4" y="668.0" transform="rotate(45 885.4 668.0)" text-anchor="start" font-size="11" font-family="sans-serif">loss 5%</text>
<rect x="951.8" y="144.2" width="54.3" height="505.8" fill="#d62728"/>
<text x="978.9" y="136.2" text-anchor="middle" font-size="10" font-family="sans-serif">17</text>
<text x="978.9" y="668.0" transform="rotate(45 978.9 668.0)" text-anchor="start" font-size="11" font-family="sans-serif">loss 10%</text>
<rect x="1045.4" y="203.8" width="54.3" height="446.2" fill="#d62728"/>
<text x="1072.5" y="195.8" text-anchor="middle" font-size="10" font-family="sans-serif">15</text>
<text x="1072.5" y="668.0" transform="rotate(45 1072.5 668.0)" text-anchor="start" font-size="11" font-family="sans-serif">256k+1%</text>
<rect x="1138.9" y="144.2" width="54.3" height="505.8" fill="#d62728"/>
<text x="1166.1" y="136.2" text-anchor="middle" font-size="10" font-family="sans-serif">17</text>
<text x="1166.1" y="668.0" transform="rotate(45 1166.1 668.0)" text-anchor="start" font-size="11" font-family="sans-serif">128k+2%</text>
<rect x="1232.5" y="174.0" width="54.3" height="476.0" fill="#d62728"/>
<text x="1259.6" y="166.0" text-anchor="middle" font-size="10" font-family="sans-serif">16</text>
<text x="1259.6" y="668.0" transform="rotate(45 1259.6 668.0)" text-anchor="start" font-size="11" font-family="sans-serif">64k+5%</text>
<rect x="1326.1" y="174.0" width="54.3" height="476.0" fill="#d62728"/>
<text x="1353.2" y="166.0" text-anchor="middle" font-size="10" font-family="sans-serif">16</text>
<text x="1353.2" y="668.0" transform="rotate(45 1353.2 668.0)" text-anchor="start" font-size="11" font-family="sans-serif">base-end</text>
</svg>