<svg xmlns="http://www.w3.org/2000/svg" width="1200" height="680" viewBox="0 0 1200 680">
<rect x="0" y="0" width="1200" height="680" fill="white"/>
<line x1="90" y1="50" x2="90" y2="600" stroke="#222"/>
<line x1="90" y1="600" x2="1170" y2="600" stroke="#222"/>
<text x="600.0" y="24" text-anchor="middle" font-size="20" font-family="sans-serif">fred: Session-Only Active-Hour Bandwidth Trend</text>
<text x="600.0" y="664" text-anchor="middle" font-size="14" font-family="sans-serif">chronological active-hour bucket</text>
<text x="28" y="340.0" transform="rotate(-90 28 340.0)" text-anchor="middle" font-size="14" font-family="sans-serif">kbps</text>
<line x1="90" y1="600.0" x2="1170" y2="600.0" stroke="#ddd"/>
<text x="80" y="604.0" text-anchor="end" font-size="12" font-family="sans-serif">0.0</text>
<line x1="90" y1="490.0" x2="1170" y2="490.0" stroke="#ddd"/>
<text x="80" y="494.0" text-anchor="end" font-size="12" font-family="sans-serif">20.0</text>
<line x1="90" y1="380.0" x2="1170" y2="380.0" stroke="#ddd"/>
<text x="80" y="384.0" text-anchor="end" font-size="12" font-family="sans-serif">40.0</text>
<line x1="90" y1="270.0" x2="1170" y2="270.0" stroke="#ddd"/>
<text x="80" y="274.0" text-anchor="end" font-size="12" font-family="sans-serif">60.0</text>
<line x1="90" y1="160.0" x2="1170" y2="160.0" stroke="#ddd"/>
<text x="80" y="164.0" text-anchor="end" font-size="12" font-family="sans-serif">80.0</text>
<line x1="90" y1="50.0" x2="1170" y2="50.0" stroke="#ddd"/>
<text x="80" y="54.0" text-anchor="end" font-size="12" font-family="sans-serif">100.0</text>
<text x="90.0" y="624" text-anchor="middle" font-size="11" font-family="sans-serif">1</text>
<text x="192.9" y="624" text-anchor="middle" font-size="11" font-family="sans-serif">3</text>
<text x="347.1" y="624" text-anchor="middle" font-size="11" font-family="sans-serif">6</text>
<text x="450.0" y="624" text-anchor="middle" font-size="11" font-family="sans-serif">8</text>
<text x="552.9" y="624" text-anchor="middle" font-size="11" font-family="sans-serif">10</text>
<text x="707.1" y="624" text-anchor="middle" font-size="11" font-family="sans-serif">13</text>
<text x="810.0" y="624" text-anchor="middle" font-size="11" font-family="sans-serif">15</text>
<text x="912.9" y="624" text-anchor="middle" font-size="11" font-family="sans-serif">17</text>
<text x="1067.1" y="624" text-anchor="middle" font-size="11" font-family="sans-serif">20</text>
<text x="1170.0" y="624" text-anchor="middle" font-size="11" font-family="sans-serif">22</text>
<polyline fill="none" stroke="#9467bd" stroke-width="2" points="90.0,599.9 141.4,600.0 192.9,600.0 244.3,600.0 295.7,600.0 347.1,600.0 398.6,599.9 450.0,599.6 501.4,600.0 552.9,599.6 604.3,599.7 655.7,599.7 707.1,599.9 758.6,599.9 810.0,599.9 861.4,599.9 912.9,599.8 964.3,599.7 1015.7,600.0 1067.1,599.7 1118.6,599.9 1170.0,600.0"/>
<rect x="100" y="58" width="12" height="12" fill="#9467bd"/>
<text x="118" y="69" font-size="12" font-family="sans-serif">control status</text>
<polyline fill="none" stroke="#2ca02c" stroke-width="2" points="141.4,584.0 192.9,596.0 1067.1,587.0"/>
<rect x="270" y="58" width="12" height="12" fill="#2ca02c"/>
<text x="288" y="69" font-size="12" font-family="sans-serif">audio down</text>
<polyline fill="none" stroke="#d62728" stroke-width="2" points="90.0,600.0 141.4,599.8 192.9,600.0 244.3,600.0 295.7,600.0 347.1,600.0 552.9,599.9 861.4,600.0 964.3,599.9 1015.7,600.0 1067.1,600.0 1118.6,600.0 1170.0,600.0"/>
<rect x="440" y="58" width="12" height="12" fill="#d62728"/>
<text x="458" y="69" font-size="12" font-family="sans-serif">drive commands</text>
<polyline fill="none" stroke="#ff7f0e" stroke-width="2" points="141.4,228.6 192.9,594.6 501.4,319.8 552.9,488.2 912.9,592.8 964.3,380.7 1067.1,428.5"/>
<rect x="610" y="58" width="12" height="12" fill="#ff7f0e"/>
<text x="628" y="69" font-size="12" font-family="sans-serif">audio up</text>
<polyline fill="none" stroke="#1f77b4" stroke-width="2" points="90.0,571.6 141.4,416.0 347.1,598.5 501.4,590.6 552.9,468.8 861.4,489.1 912.9,595.3 964.3,441.5 1067.1,404.5"/>
<rect x="780" y="58" width="12" height="12" fill="#1f77b4"/>
<text x="798" y="69" font-size="12" font-family="sans-serif">video</text>
</svg>