<svg xmlns="http://www.w3.org/2000/svg" width="1200" height="680" viewBox="0 0 1200 680">
<rect x="0" y="0" width="1200" height="680" fill="white"/>
<line x1="90" y1="50" x2="90" y2="600" stroke="#222"/>
<line x1="90" y1="600" x2="1170" y2="600" stroke="#222"/>
<text x="600.0" y="24" text-anchor="middle" font-size="20" font-family="sans-serif">fred: Session-Scoped Media Bandwidth</text>
<text x="600.0" y="664" text-anchor="middle" font-size="14" font-family="sans-serif">media category</text>
<text x="28" y="340.0" transform="rotate(-90 28 340.0)" text-anchor="middle" font-size="14" font-family="sans-serif">kbps</text>
<line x1="90" y1="600.0" x2="1170" y2="600.0" stroke="#ddd"/>
<text x="80" y="604.0" text-anchor="end" font-size="12" font-family="sans-serif">0.0</text>
<line x1="90" y1="490.0" x2="1170" y2="490.0" stroke="#ddd"/>
<text x="80" y="494.0" text-anchor="end" font-size="12" font-family="sans-serif">200.0</text>
<line x1="90" y1="380.0" x2="1170" y2="380.0" stroke="#ddd"/>
<text x="80" y="384.0" text-anchor="end" font-size="12" font-family="sans-serif">400.0</text>
<line x1="90" y1="270.0" x2="1170" y2="270.0" stroke="#ddd"/>
<text x="80" y="274.0" text-anchor="end" font-size="12" font-family="sans-serif">600.0</text>
<line x1="90" y1="160.0" x2="1170" y2="160.0" stroke="#ddd"/>
<text x="80" y="164.0" text-anchor="end" font-size="12" font-family="sans-serif">800.0</text>
<line x1="90" y1="50.0" x2="1170" y2="50.0" stroke="#ddd"/>
<text x="80" y="54.0" text-anchor="end" font-size="12" font-family="sans-serif">1000.0</text>
<rect x="144.0" y="513.7" width="112.5" height="86.3" fill="#f58518"/>
<text x="200.2" y="507.7" text-anchor="middle" font-size="10" font-family="sans-serif">156.93</text>
<rect x="273.4" y="312.1" width="112.5" height="287.9" fill="#54a24b"/>
<text x="329.6" y="306.1" text-anchor="middle" font-size="10" font-family="sans-serif">523.52</text>
<text x="211.5" y="624" text-anchor="middle" font-size="11" font-family="sans-serif">video</text>
<rect x="504.0" y="453.9" width="112.5" height="146.1" fill="#f58518"/>
<text x="560.2" y="447.9" text-anchor="middle" font-size="10" font-family="sans-serif">265.60</text>
<rect x="633.4" y="451.0" width="112.5" height="149.0" fill="#54a24b"/>
<text x="689.6" y="445.0" text-anchor="middle" font-size="10" font-family="sans-serif">270.91</text>
<text x="571.5" y="624" text-anchor="middle" font-size="11" font-family="sans-serif">audio up</text>
<rect x="864.0" y="383.4" width="112.5" height="216.6" fill="#f58518"/>
<text x="920.2" y="377.4" text-anchor="middle" font-size="10" font-family="sans-serif">393.79</text>
<rect x="993.4" y="311.2" width="112.5" height="288.8" fill="#54a24b"/>
<text x="1049.6" y="305.2" text-anchor="middle" font-size="10" font-family="sans-serif">525.06</text>
<text x="931.5" y="624" text-anchor="middle" font-size="11" font-family="sans-serif">audio down</text>
<rect x="100" y="58" width="12" height="12" fill="#f58518"/>
<text x="118" y="69" font-size="12" font-family="sans-serif">median active second</text>
<rect x="300" y="58" width="12" height="12" fill="#54a24b"/>
<text x="318" y="69" font-size="12" font-family="sans-serif">p95 active second</text>
</svg>