<svg xmlns="http://www.w3.org/2000/svg" width="1200" height="680" viewBox="0 0 1200 680">
<rect x="0" y="0" width="1200" height="680" fill="white"/>
<line x1="90" y1="50" x2="90" y2="600" stroke="#222"/>
<line x1="90" y1="600" x2="1170" y2="600" stroke="#222"/>
<text x="600.0" y="24" text-anchor="middle" font-size="20" font-family="sans-serif">minilamp: Heartbeat Dropout Outage Distribution</text>
<text x="600.0" y="664" text-anchor="middle" font-size="14" font-family="sans-serif">outage ms</text>
<text x="28" y="340.0" transform="rotate(-90 28 340.0)" text-anchor="middle" font-size="14" font-family="sans-serif">dropout events</text>
<line x1="90" y1="600.0" x2="1170" y2="600.0" stroke="#ddd"/>
<text x="80" y="604.0" text-anchor="end" font-size="12" font-family="sans-serif">0</text>
<line x1="90" y1="490.0" x2="1170" y2="490.0" stroke="#ddd"/>
<text x="80" y="494.0" text-anchor="end" font-size="12" font-family="sans-serif">4000</text>
<line x1="90" y1="380.0" x2="1170" y2="380.0" stroke="#ddd"/>
<text x="80" y="384.0" text-anchor="end" font-size="12" font-family="sans-serif">8000</text>
<line x1="90" y1="270.0" x2="1170" y2="270.0" stroke="#ddd"/>
<text x="80" y="274.0" text-anchor="end" font-size="12" font-family="sans-serif">12000</text>
<line x1="90" y1="160.0" x2="1170" y2="160.0" stroke="#ddd"/>
<text x="80" y="164.0" text-anchor="end" font-size="12" font-family="sans-serif">16000</text>
<line x1="90" y1="50.0" x2="1170" y2="50.0" stroke="#ddd"/>
<text x="80" y="54.0" text-anchor="end" font-size="12" font-family="sans-serif">20000</text>
<rect x="90.0" y="181.4" width="37.6" height="418.6" fill="#1f77b4"/>
<rect x="128.6" y="564.4" width="37.6" height="35.6" fill="#1f77b4"/>
<rect x="167.1" y="595.1" width="37.6" height="4.9" fill="#1f77b4"/>
<rect x="205.7" y="597.8" width="37.6" height="2.2" fill="#1f77b4"/>
<rect x="244.3" y="599.2" width="37.6" height="0.8" fill="#1f77b4"/>
<rect x="282.9" y="599.6" width="37.6" height="0.4" fill="#1f77b4"/>
<rect x="321.4" y="599.7" width="37.6" height="0.3" fill="#1f77b4"/>
<rect x="360.0" y="599.7" width="37.6" height="0.3" fill="#1f77b4"/>
<rect x="398.6" y="597.2" width="37.6" height="2.8" fill="#1f77b4"/>
<rect x="437.1" y="590.1" width="37.6" height="9.9" fill="#1f77b4"/>
<rect x="475.7" y="586.8" width="37.6" height="13.2" fill="#1f77b4"/>
<rect x="514.3" y="588.2" width="37.6" height="11.8" fill="#1f77b4"/>
<rect x="552.9" y="586.2" width="37.6" height="13.8" fill="#1f77b4"/>
<rect x="591.4" y="576.5" width="37.6" height="23.5" fill="#1f77b4"/>
<rect x="630.0" y="581.7" width="37.6" height="18.3" fill="#1f77b4"/>
<rect x="668.6" y="590.9" width="37.6" height="9.1" fill="#1f77b4"/>
<rect x="707.1" y="596.2" width="37.6" height="3.8" fill="#1f77b4"/>
<rect x="745.7" y="598.5" width="37.6" height="1.5" fill="#1f77b4"/>
<rect x="784.3" y="599.6" width="37.6" height="0.4" fill="#1f77b4"/>
<rect x="822.9" y="599.6" width="37.6" height="0.4" fill="#1f77b4"/>
<rect x="861.4" y="595.4" width="37.6" height="4.6" fill="#1f77b4"/>
<rect x="900.0" y="585.2" width="37.6" height="14.8" fill="#1f77b4"/>
<rect x="938.6" y="585.5" width="37.6" height="14.5" fill="#1f77b4"/>
<rect x="977.1" y="596.1" width="37.6" height="3.9" fill="#1f77b4"/>
<rect x="1015.7" y="598.9" width="37.6" height="1.1" fill="#1f77b4"/>
<rect x="1054.3" y="599.8" width="37.6" height="0.2" fill="#1f77b4"/>
<rect x="1092.9" y="599.8" width="37.6" height="0.2" fill="#1f77b4"/>
<rect x="1131.4" y="599.9" width="37.6" height="0.1" fill="#1f77b4"/>
<text x="90.0" y="624" text-anchor="start" font-size="11" font-family="sans-serif">100</text>
<text x="244.3" y="624" text-anchor="start" font-size="11" font-family="sans-serif">500</text>
<text x="398.6" y="624" text-anchor="start" font-size="11" font-family="sans-serif">900</text>
<text x="552.9" y="624" text-anchor="start" font-size="11" font-family="sans-serif">1300</text>
<text x="668.6" y="624" text-anchor="start" font-size="11" font-family="sans-serif">1600</text>
<text x="822.9" y="624" text-anchor="start" font-size="11" font-family="sans-serif">2000</text>
<text x="977.1" y="624" text-anchor="start" font-size="11" font-family="sans-serif">2400</text>
<text x="1131.4" y="624" text-anchor="start" font-size="11" font-family="sans-serif">2800</text>
</svg>