<svg xmlns="http://www.w3.org/2000/svg" width="1200" height="680" viewBox="0 0 1200 680">
<rect x="0" y="0" width="1200" height="680" fill="white"/>
<line x1="90" y1="50" x2="90" y2="600" stroke="#222"/>
<line x1="90" y1="600" x2="1170" y2="600" stroke="#222"/>
<text x="600.0" y="24" text-anchor="middle" font-size="20" font-family="sans-serif">minilamp: Daily Heartbeat Dropout Counts</text>
<text x="600.0" y="664" text-anchor="middle" font-size="14" font-family="sans-serif">alaska local day</text>
<text x="28" y="340.0" transform="rotate(-90 28 340.0)" text-anchor="middle" font-size="14" font-family="sans-serif">dropout events</text>
<line x1="90" y1="600.0" x2="1170" y2="600.0" stroke="#ddd"/>
<text x="80" y="604.0" text-anchor="end" font-size="12" font-family="sans-serif">0</text>
<line x1="90" y1="490.0" x2="1170" y2="490.0" stroke="#ddd"/>
<text x="80" y="494.0" text-anchor="end" font-size="12" font-family="sans-serif">1000</text>
<line x1="90" y1="380.0" x2="1170" y2="380.0" stroke="#ddd"/>
<text x="80" y="384.0" text-anchor="end" font-size="12" font-family="sans-serif">2000</text>
<line x1="90" y1="270.0" x2="1170" y2="270.0" stroke="#ddd"/>
<text x="80" y="274.0" text-anchor="end" font-size="12" font-family="sans-serif">3000</text>
<line x1="90" y1="160.0" x2="1170" y2="160.0" stroke="#ddd"/>
<text x="80" y="164.0" text-anchor="end" font-size="12" font-family="sans-serif">4000</text>
<line x1="90" y1="50.0" x2="1170" y2="50.0" stroke="#ddd"/>
<text x="80" y="54.0" text-anchor="end" font-size="12" font-family="sans-serif">5000</text>
<rect x="108.0" y="489.6" width="72.0" height="110.4" fill="#d62728"/>
<text x="144.0" y="483.6" text-anchor="middle" font-size="10" font-family="sans-serif">1004</text>
<text x="144.0" y="624" text-anchor="middle" font-size="11" font-family="sans-serif">03-05</text>
<rect x="216.0" y="477.2" width="72.0" height="122.8" fill="#d62728"/>
<text x="252.0" y="471.2" text-anchor="middle" font-size="10" font-family="sans-serif">1116</text>
<text x="252.0" y="624" text-anchor="middle" font-size="11" font-family="sans-serif">03-06</text>
<rect x="324.0" y="284.2" width="72.0" height="315.8" fill="#d62728"/>
<text x="360.0" y="278.2" text-anchor="middle" font-size="10" font-family="sans-serif">2871</text>
<text x="360.0" y="624" text-anchor="middle" font-size="11" font-family="sans-serif">03-07</text>
<rect x="432.0" y="303.2" width="72.0" height="296.8" fill="#d62728"/>
<text x="468.0" y="297.2" text-anchor="middle" font-size="10" font-family="sans-serif">2698</text>
<text x="468.0" y="624" text-anchor="middle" font-size="11" font-family="sans-serif">03-08</text>
<rect x="540.0" y="293.0" width="72.0" height="307.0" fill="#d62728"/>
<text x="576.0" y="287.0" text-anchor="middle" font-size="10" font-family="sans-serif">2791</text>
<text x="576.0" y="624" text-anchor="middle" font-size="11" font-family="sans-serif">03-09</text>
<rect x="648.0" y="325.0" width="72.0" height="275.0" fill="#d62728"/>
<text x="684.0" y="319.0" text-anchor="middle" font-size="10" font-family="sans-serif">2500</text>
<text x="684.0" y="624" text-anchor="middle" font-size="11" font-family="sans-serif">03-10</text>
<rect x="756.0" y="193.0" width="72.0" height="407.0" fill="#d62728"/>
<text x="792.0" y="187.0" text-anchor="middle" font-size="10" font-family="sans-serif">3700</text>
<text x="792.0" y="624" text-anchor="middle" font-size="11" font-family="sans-serif">03-11</text>
<rect x="864.0" y="234.4" width="72.0" height="365.6" fill="#d62728"/>
<text x="900.0" y="228.4" text-anchor="middle" font-size="10" font-family="sans-serif">3324</text>
<text x="900.0" y="624" text-anchor="middle" font-size="11" font-family="sans-serif">03-12</text>
<rect x="972.0" y="436.8" width="72.0" height="163.2" fill="#d62728"/>
<text x="1008.0" y="430.8" text-anchor="middle" font-size="10" font-family="sans-serif">1484</text>
<text x="1008.0" y="624" text-anchor="middle" font-size="11" font-family="sans-serif">03-13</text>
<rect x="1080.0" y="519.5" width="72.0" height="80.5" fill="#d62728"/>
<text x="1116.0" y="513.5" text-anchor="middle" font-size="10" font-family="sans-serif">732</text>
<text x="1116.0" y="624" text-anchor="middle" font-size="11" font-family="sans-serif">03-14</text>
</svg>