<svg xmlns="http://www.w3.org/2000/svg" width="1200" height="680" viewBox="0 0 1200 680">
<rect x="0" y="0" width="1200" height="680" fill="white"/>
<line x1="90" y1="50" x2="90" y2="600" stroke="#222"/>
<line x1="90" y1="600" x2="1170" y2="600" stroke="#222"/>
<text x="600.0" y="24" text-anchor="middle" font-size="20" font-family="sans-serif">minilamp: Online Latency Distribution</text>
<text x="600.0" y="664" text-anchor="middle" font-size="14" font-family="sans-serif">latency ms</text>
<text x="28" y="340.0" transform="rotate(-90 28 340.0)" text-anchor="middle" font-size="14" font-family="sans-serif">samples</text>
<line x1="90" y1="600.0" x2="1170" y2="600.0" stroke="#ddd"/>
<text x="80" y="604.0" text-anchor="end" font-size="12" font-family="sans-serif">0</text>
<line x1="90" y1="490.0" x2="1170" y2="490.0" stroke="#ddd"/>
<text x="80" y="494.0" text-anchor="end" font-size="12" font-family="sans-serif">10000</text>
<line x1="90" y1="380.0" x2="1170" y2="380.0" stroke="#ddd"/>
<text x="80" y="384.0" text-anchor="end" font-size="12" font-family="sans-serif">20000</text>
<line x1="90" y1="270.0" x2="1170" y2="270.0" stroke="#ddd"/>
<text x="80" y="274.0" text-anchor="end" font-size="12" font-family="sans-serif">30000</text>
<line x1="90" y1="160.0" x2="1170" y2="160.0" stroke="#ddd"/>
<text x="80" y="164.0" text-anchor="end" font-size="12" font-family="sans-serif">40000</text>
<line x1="90" y1="50.0" x2="1170" y2="50.0" stroke="#ddd"/>
<text x="80" y="54.0" text-anchor="end" font-size="12" font-family="sans-serif">50000</text>
<rect x="90.0" y="599.9" width="3.9" height="0.1" fill="#1f77b4"/>
<rect x="94.9" y="597.3" width="3.9" height="2.7" fill="#1f77b4"/>
<rect x="99.8" y="591.7" width="3.9" height="8.3" fill="#1f77b4"/>
<rect x="104.7" y="587.6" width="3.9" height="12.4" fill="#1f77b4"/>
<rect x="109.5" y="582.3" width="3.9" height="17.7" fill="#1f77b4"/>
<rect x="114.4" y="568.6" width="3.9" height="31.4" fill="#1f77b4"/>
<rect x="119.3" y="550.8" width="3.9" height="49.2" fill="#1f77b4"/>
<rect x="124.2" y="516.1" width="3.9" height="83.9" fill="#1f77b4"/>
<rect x="129.1" y="495.4" width="3.9" height="104.6" fill="#1f77b4"/>
<rect x="134.0" y="470.5" width="3.9" height="129.5" fill="#1f77b4"/>
<rect x="138.9" y="467.4" width="3.9" height="132.6" fill="#1f77b4"/>
<rect x="143.8" y="452.2" width="3.9" height="147.8" fill="#1f77b4"/>
<rect x="148.6" y="434.5" width="3.9" height="165.5" fill="#1f77b4"/>
<rect x="153.5" y="435.5" width="3.9" height="164.5" fill="#1f77b4"/>
<rect x="158.4" y="421.8" width="3.9" height="178.2" fill="#1f77b4"/>
<rect x="163.3" y="415.1" width="3.9" height="184.9" fill="#1f77b4"/>
<rect x="168.2" y="412.3" width="3.9" height="187.7" fill="#1f77b4"/>
<rect x="173.1" y="415.1" width="3.9" height="184.9" fill="#1f77b4"/>
<rect x="178.0" y="427.6" width="3.9" height="172.4" fill="#1f77b4"/>
<rect x="182.9" y="427.7" width="3.9" height="172.3" fill="#1f77b4"/>
<rect x="187.7" y="420.6" width="3.9" height="179.4" fill="#1f77b4"/>
<rect x="192.6" y="420.6" width="3.9" height="179.4" fill="#1f77b4"/>
<rect x="197.5" y="407.3" width="3.9" height="192.7" fill="#1f77b4"/>
<rect x="202.4" y="404.5" width="3.9" height="195.5" fill="#1f77b4"/>
<rect x="207.3" y="409.6" width="3.9" height="190.4" fill="#1f77b4"/>
<rect x="212.2" y="418.4" width="3.9" height="181.6" fill="#1f77b4"/>
<rect x="217.1" y="412.4" width="3.9" height="187.6" fill="#1f77b4"/>
<rect x="221.9" y="408.6" width="3.9" height="191.4" fill="#1f77b4"/>
<rect x="226.8" y="413.6" width="3.9" height="186.4" fill="#1f77b4"/>
<rect x="231.7" y="414.9" width="3.9" height="185.1" fill="#1f77b4"/>
<rect x="236.6" y="411.9" width="3.9" height="188.1" fill="#1f77b4"/>
<rect x="241.5" y="409.2" width="3.9" height="190.8" fill="#1f77b4"/>
<rect x="246.4" y="383.2" width="3.9" height="216.8" fill="#1f77b4"/>
<rect x="251.3" y="390.6" width="3.9" height="209.4" fill="#1f77b4"/>
<rect x="256.2" y="388.4" width="3.9" height="211.6" fill="#1f77b4"/>
<rect x="261.0" y="402.1" width="3.9" height="197.9" fill="#1f77b4"/>
<rect x="265.9" y="405.9" width="3.9" height="194.1" fill="#1f77b4"/>
<rect x="270.8" y="400.3" width="3.9" height="199.7" fill="#1f77b4"/>
<rect x="275.7" y="400.5" width="3.9" height="199.5" fill="#1f77b4"/>
<rect x="280.6" y="399.6" width="3.9" height="200.4" fill="#1f77b4"/>
<rect x="285.5" y="401.8" width="3.9" height="198.2" fill="#1f77b4"/>
<rect x="290.4" y="403.7" width="3.9" height="196.3" fill="#1f77b4"/>
<rect x="295.2" y="404.4" width="3.9" height="195.6" fill="#1f77b4"/>
<rect x="300.1" y="415.8" width="3.9" height="184.2" fill="#1f77b4"/>
<rect x="305.0" y="411.8" width="3.9" height="188.2" fill="#1f77b4"/>
<rect x="309.9" y="412.7" width="3.9" height="187.3" fill="#1f77b4"/>
<rect x="314.8" y="413.9" width="3.9" height="186.1" fill="#1f77b4"/>
<rect x="319.7" y="407.9" width="3.9" height="192.1" fill="#1f77b4"/>
<rect x="324.6" y="396.4" width="3.9" height="203.6" fill="#1f77b4"/>
<rect x="329.5" y="408.4" width="3.9" height="191.6" fill="#1f77b4"/>
<rect x="334.3" y="419.6" width="3.9" height="180.4" fill="#1f77b4"/>
<rect x="339.2" y="406.9" width="3.9" height="193.1" fill="#1f77b4"/>
<rect x="344.1" y="398.7" width="3.9" height="201.3" fill="#1f77b4"/>
<rect x="349.0" y="412.7" width="3.9" height="187.3" fill="#1f77b4"/>
<rect x="353.9" y="409.8" width="3.9" height="190.2" fill="#1f77b4"/>
<rect x="358.8" y="406.0" width="3.9" height="194.0" fill="#1f77b4"/>
<rect x="363.7" y="405.2" width="3.9" height="194.8" fill="#1f77b4"/>
<rect x="368.6" y="379.0" width="3.9" height="221.0" fill="#1f77b4"/>
<rect x="373.4" y="386.1" width="3.9" height="213.9" fill="#1f77b4"/>
<rect x="378.3" y="392.5" width="3.9" height="207.5" fill="#1f77b4"/>
<rect x="383.2" y="406.3" width="3.9" height="193.7" fill="#1f77b4"/>
<rect x="388.1" y="410.4" width="3.9" height="189.6" fill="#1f77b4"/>
<rect x="393.0" y="399.2" width="3.9" height="200.8" fill="#1f77b4"/>
<rect x="397.9" y="405.1" width="3.9" height="194.9" fill="#1f77b4"/>
<rect x="402.8" y="396.0" width="3.9" height="204.0" fill="#1f77b4"/>
<rect x="407.6" y="396.0" width="3.9" height="204.0" fill="#1f77b4"/>
<rect x="412.5" y="399.2" width="3.9" height="200.8" fill="#1f77b4"/>
<rect x="417.4" y="403.2" width="3.9" height="196.8" fill="#1f77b4"/>
<rect x="422.3" y="414.0" width="3.9" height="186.0" fill="#1f77b4"/>
<rect x="427.2" y="415.8" width="3.9" height="184.2" fill="#1f77b4"/>
<rect x="432.1" y="411.0" width="3.9" height="189.0" fill="#1f77b4"/>
<rect x="437.0" y="414.5" width="3.9" height="185.5" fill="#1f77b4"/>
<rect x="441.9" y="401.4" width="3.9" height="198.6" fill="#1f77b4"/>
<rect x="446.7" y="398.2" width="3.9" height="201.8" fill="#1f77b4"/>
<rect x="451.6" y="408.2" width="3.9" height="191.8" fill="#1f77b4"/>
<rect x="456.5" y="419.3" width="3.9" height="180.7" fill="#1f77b4"/>
<rect x="461.4" y="403.4" width="3.9" height="196.6" fill="#1f77b4"/>
<rect x="466.3" y="400.8" width="3.9" height="199.2" fill="#1f77b4"/>
<rect x="471.2" y="407.2" width="3.9" height="192.8" fill="#1f77b4"/>
<rect x="476.1" y="408.9" width="3.9" height="191.1" fill="#1f77b4"/>
<rect x="481.0" y="411.2" width="3.9" height="188.8" fill="#1f77b4"/>
<rect x="485.8" y="409.6" width="3.9" height="190.4" fill="#1f77b4"/>
<rect x="490.7" y="381.6" width="3.9" height="218.4" fill="#1f77b4"/>
<rect x="495.6" y="391.1" width="3.9" height="208.9" fill="#1f77b4"/>
<rect x="500.5" y="386.2" width="3.9" height="213.8" fill="#1f77b4"/>
<rect x="505.4" y="402.3" width="3.9" height="197.7" fill="#1f77b4"/>
<rect x="510.3" y="405.6" width="3.9" height="194.4" fill="#1f77b4"/>
<rect x="515.2" y="398.0" width="3.9" height="202.0" fill="#1f77b4"/>
<rect x="520.0" y="400.8" width="3.9" height="199.2" fill="#1f77b4"/>
<rect x="524.9" y="399.2" width="3.9" height="200.8" fill="#1f77b4"/>
<rect x="529.8" y="400.6" width="3.9" height="199.4" fill="#1f77b4"/>
<rect x="534.7" y="402.6" width="3.9" height="197.4" fill="#1f77b4"/>
<rect x="539.6" y="400.6" width="3.9" height="199.4" fill="#1f77b4"/>
<rect x="544.5" y="417.1" width="3.9" height="182.9" fill="#1f77b4"/>
<rect x="549.4" y="411.8" width="3.9" height="188.2" fill="#1f77b4"/>
<rect x="554.3" y="411.8" width="3.9" height="188.2" fill="#1f77b4"/>
<rect x="559.1" y="412.2" width="3.9" height="187.8" fill="#1f77b4"/>
<rect x="564.0" y="405.5" width="3.9" height="194.5" fill="#1f77b4"/>
<rect x="568.9" y="394.6" width="3.9" height="205.4" fill="#1f77b4"/>
<rect x="573.8" y="404.7" width="3.9" height="195.3" fill="#1f77b4"/>
<rect x="578.7" y="423.2" width="3.9" height="176.8" fill="#1f77b4"/>
<rect x="583.6" y="419.3" width="3.9" height="180.7" fill="#1f77b4"/>
<rect x="588.5" y="416.6" width="3.9" height="183.4" fill="#1f77b4"/>
<rect x="593.3" y="429.7" width="3.9" height="170.3" fill="#1f77b4"/>
<rect x="598.2" y="436.7" width="3.9" height="163.3" fill="#1f77b4"/>
<rect x="603.1" y="451.2" width="3.9" height="148.8" fill="#1f77b4"/>
<rect x="608.0" y="468.3" width="3.9" height="131.7" fill="#1f77b4"/>
<rect x="612.9" y="473.3" width="3.9" height="126.7" fill="#1f77b4"/>
<rect x="617.8" y="492.3" width="3.9" height="107.7" fill="#1f77b4"/>
<rect x="622.7" y="514.5" width="3.9" height="85.5" fill="#1f77b4"/>
<rect x="627.6" y="529.6" width="3.9" height="70.4" fill="#1f77b4"/>
<rect x="632.4" y="548.8" width="3.9" height="51.2" fill="#1f77b4"/>
<rect x="637.3" y="558.7" width="3.9" height="41.3" fill="#1f77b4"/>
<rect x="642.2" y="568.1" width="3.9" height="31.9" fill="#1f77b4"/>
<rect x="647.1" y="574.4" width="3.9" height="25.6" fill="#1f77b4"/>
<rect x="652.0" y="579.4" width="3.9" height="20.6" fill="#1f77b4"/>
<rect x="656.9" y="584.2" width="3.9" height="15.8" fill="#1f77b4"/>
<rect x="661.8" y="587.6" width="3.9" height="12.4" fill="#1f77b4"/>
<rect x="666.7" y="590.2" width="3.9" height="9.8" fill="#1f77b4"/>
<rect x="671.5" y="591.4" width="3.9" height="8.6" fill="#1f77b4"/>
<rect x="676.4" y="592.6" width="3.9" height="7.4" fill="#1f77b4"/>
<rect x="681.3" y="593.2" width="3.9" height="6.8" fill="#1f77b4"/>
<rect x="686.2" y="593.3" width="3.9" height="6.7" fill="#1f77b4"/>
<rect x="691.1" y="594.4" width="3.9" height="5.6" fill="#1f77b4"/>
<rect x="696.0" y="594.4" width="3.9" height="5.6" fill="#1f77b4"/>
<rect x="700.9" y="595.5" width="3.9" height="4.5" fill="#1f77b4"/>
<rect x="705.7" y="595.2" width="3.9" height="4.8" fill="#1f77b4"/>
<rect x="710.6" y="596.1" width="3.9" height="3.9" fill="#1f77b4"/>
<rect x="715.5" y="596.0" width="3.9" height="4.0" fill="#1f77b4"/>
<rect x="720.4" y="596.3" width="3.9" height="3.7" fill="#1f77b4"/>
<rect x="725.3" y="596.4" width="3.9" height="3.6" fill="#1f77b4"/>
<rect x="730.2" y="596.4" width="3.9" height="3.6" fill="#1f77b4"/>
<rect x="735.1" y="596.1" width="3.9" height="3.9" fill="#1f77b4"/>
<rect x="740.0" y="596.8" width="3.9" height="3.2" fill="#1f77b4"/>
<rect x="744.8" y="596.2" width="3.9" height="3.8" fill="#1f77b4"/>
<rect x="749.7" y="596.7" width="3.9" height="3.3" fill="#1f77b4"/>
<rect x="754.6" y="596.8" width="3.9" height="3.2" fill="#1f77b4"/>
<rect x="759.5" y="596.0" width="3.9" height="4.0" fill="#1f77b4"/>
<rect x="764.4" y="596.5" width="3.9" height="3.5" fill="#1f77b4"/>
<rect x="769.3" y="596.4" width="3.9" height="3.6" fill="#1f77b4"/>
<rect x="774.2" y="596.6" width="3.9" height="3.4" fill="#1f77b4"/>
<rect x="779.0" y="596.3" width="3.9" height="3.7" fill="#1f77b4"/>
<rect x="783.9" y="596.6" width="3.9" height="3.4" fill="#1f77b4"/>
<rect x="788.8" y="596.2" width="3.9" height="3.8" fill="#1f77b4"/>
<rect x="793.7" y="596.4" width="3.9" height="3.6" fill="#1f77b4"/>
<rect x="798.6" y="596.8" width="3.9" height="3.2" fill="#1f77b4"/>
<rect x="803.5" y="596.2" width="3.9" height="3.8" fill="#1f77b4"/>
<rect x="808.4" y="596.6" width="3.9" height="3.4" fill="#1f77b4"/>
<rect x="813.3" y="596.6" width="3.9" height="3.4" fill="#1f77b4"/>
<rect x="818.1" y="596.4" width="3.9" height="3.6" fill="#1f77b4"/>
<rect x="823.0" y="596.3" width="3.9" height="3.7" fill="#1f77b4"/>
<rect x="827.9" y="597.0" width="3.9" height="3.0" fill="#1f77b4"/>
<rect x="832.8" y="595.8" width="3.9" height="4.2" fill="#1f77b4"/>
<rect x="837.7" y="596.9" width="3.9" height="3.1" fill="#1f77b4"/>
<rect x="842.6" y="596.4" width="3.9" height="3.6" fill="#1f77b4"/>
<rect x="847.5" y="596.6" width="3.9" height="3.4" fill="#1f77b4"/>
<rect x="852.4" y="597.0" width="3.9" height="3.0" fill="#1f77b4"/>
<rect x="857.2" y="596.2" width="3.9" height="3.8" fill="#1f77b4"/>
<rect x="862.1" y="596.2" width="3.9" height="3.8" fill="#1f77b4"/>
<rect x="867.0" y="596.2" width="3.9" height="3.8" fill="#1f77b4"/>
<rect x="871.9" y="596.1" width="3.9" height="3.9" fill="#1f77b4"/>
<rect x="876.8" y="597.2" width="3.9" height="2.8" fill="#1f77b4"/>
<rect x="881.7" y="597.2" width="3.9" height="2.8" fill="#1f77b4"/>
<rect x="886.6" y="596.7" width="3.9" height="3.3" fill="#1f77b4"/>
<rect x="891.4" y="596.0" width="3.9" height="4.0" fill="#1f77b4"/>
<rect x="896.3" y="596.3" width="3.9" height="3.7" fill="#1f77b4"/>
<rect x="901.2" y="596.7" width="3.9" height="3.3" fill="#1f77b4"/>
<rect x="906.1" y="596.9" width="3.9" height="3.1" fill="#1f77b4"/>
<rect x="911.0" y="596.4" width="3.9" height="3.6" fill="#1f77b4"/>
<rect x="915.9" y="597.1" width="3.9" height="2.9" fill="#1f77b4"/>
<rect x="920.8" y="596.5" width="3.9" height="3.5" fill="#1f77b4"/>
<rect x="925.7" y="597.4" width="3.9" height="2.6" fill="#1f77b4"/>
<rect x="930.5" y="596.6" width="3.9" height="3.4" fill="#1f77b4"/>
<rect x="935.4" y="596.8" width="3.9" height="3.2" fill="#1f77b4"/>
<rect x="940.3" y="597.1" width="3.9" height="2.9" fill="#1f77b4"/>
<rect x="945.2" y="596.8" width="3.9" height="3.2" fill="#1f77b4"/>
<rect x="950.1" y="597.3" width="3.9" height="2.7" fill="#1f77b4"/>
<rect x="955.0" y="597.2" width="3.9" height="2.8" fill="#1f77b4"/>
<rect x="959.9" y="597.1" width="3.9" height="2.9" fill="#1f77b4"/>
<rect x="964.8" y="597.7" width="3.9" height="2.3" fill="#1f77b4"/>
<rect x="969.6" y="597.7" width="3.9" height="2.3" fill="#1f77b4"/>
<rect x="974.5" y="598.0" width="3.9" height="2.0" fill="#1f77b4"/>
<rect x="979.4" y="597.9" width="3.9" height="2.1" fill="#1f77b4"/>
<rect x="984.3" y="598.0" width="3.9" height="2.0" fill="#1f77b4"/>
<rect x="989.2" y="598.0" width="3.9" height="2.0" fill="#1f77b4"/>
<rect x="994.1" y="598.0" width="3.9" height="2.0" fill="#1f77b4"/>
<rect x="999.0" y="598.2" width="3.9" height="1.8" fill="#1f77b4"/>
<rect x="1003.8" y="598.0" width="3.9" height="2.0" fill="#1f77b4"/>
<rect x="1008.7" y="597.8" width="3.9" height="2.2" fill="#1f77b4"/>
<rect x="1013.6" y="598.2" width="3.9" height="1.8" fill="#1f77b4"/>
<rect x="1018.5" y="598.5" width="3.9" height="1.5" fill="#1f77b4"/>
<rect x="1023.4" y="598.2" width="3.9" height="1.8" fill="#1f77b4"/>
<rect x="1028.3" y="598.2" width="3.9" height="1.8" fill="#1f77b4"/>
<rect x="1033.2" y="598.1" width="3.9" height="1.9" fill="#1f77b4"/>
<rect x="1038.1" y="598.5" width="3.9" height="1.5" fill="#1f77b4"/>
<rect x="1042.9" y="598.3" width="3.9" height="1.7" fill="#1f77b4"/>
<rect x="1047.8" y="598.4" width="3.9" height="1.7" fill="#1f77b4"/>
<rect x="1052.7" y="598.6" width="3.9" height="1.4" fill="#1f77b4"/>
<rect x="1057.6" y="598.7" width="3.9" height="1.3" fill="#1f77b4"/>
<rect x="1062.5" y="598.6" width="3.9" height="1.4" fill="#1f77b4"/>
<rect x="1067.4" y="598.5" width="3.9" height="1.5" fill="#1f77b4"/>
<rect x="1072.3" y="598.6" width="3.9" height="1.4" fill="#1f77b4"/>
<rect x="1077.1" y="598.5" width="3.9" height="1.5" fill="#1f77b4"/>
<rect x="1082.0" y="598.2" width="3.9" height="1.8" fill="#1f77b4"/>
<rect x="1086.9" y="598.3" width="3.9" height="1.7" fill="#1f77b4"/>
<rect x="1091.8" y="598.3" width="3.9" height="1.7" fill="#1f77b4"/>
<rect x="1096.7" y="598.7" width="3.9" height="1.3" fill="#1f77b4"/>
<rect x="1101.6" y="598.7" width="3.9" height="1.3" fill="#1f77b4"/>
<rect x="1106.5" y="598.5" width="3.9" height="1.5" fill="#1f77b4"/>
<rect x="1111.4" y="598.5" width="3.9" height="1.5" fill="#1f77b4"/>
<rect x="1116.2" y="598.4" width="3.9" height="1.7" fill="#1f77b4"/>
<rect x="1121.1" y="598.7" width="3.9" height="1.3" fill="#1f77b4"/>
<rect x="1126.0" y="598.3" width="3.9" height="1.7" fill="#1f77b4"/>
<rect x="1130.9" y="599.0" width="3.9" height="1.0" fill="#1f77b4"/>
<rect x="1135.8" y="598.2" width="3.9" height="1.8" fill="#1f77b4"/>
<rect x="1140.7" y="598.4" width="3.9" height="1.6" fill="#1f77b4"/>
<rect x="1145.6" y="598.8" width="3.9" height="1.2" fill="#1f77b4"/>
<rect x="1150.5" y="598.6" width="3.9" height="1.4" fill="#1f77b4"/>
<rect x="1155.3" y="598.8" width="3.9" height="1.2" fill="#1f77b4"/>
<rect x="1160.2" y="598.8" width="3.9" height="1.2" fill="#1f77b4"/>
<rect x="1165.1" y="599.8" width="3.9" height="0.2" fill="#1f77b4"/>
<text x="90.0" y="624" text-anchor="start" font-size="11" font-family="sans-serif">10</text>
<text x="241.5" y="624" text-anchor="start" font-size="11" font-family="sans-serif">320</text>
<text x="397.9" y="624" text-anchor="start" font-size="11" font-family="sans-serif">640</text>
<text x="549.4" y="624" text-anchor="start" font-size="11" font-family="sans-serif">950</text>
<text x="705.7" y="624" text-anchor="start" font-size="11" font-family="sans-serif">1270</text>
<text x="857.2" y="624" text-anchor="start" font-size="11" font-family="sans-serif">1580</text>
<text x="1013.6" y="624" text-anchor="start" font-size="11" font-family="sans-serif">1900</text>
<text x="1165.1" y="624" text-anchor="start" font-size="11" font-family="sans-serif">2210</text>
</svg>