<svg xmlns="http://www.w3.org/2000/svg" width="1200" height="680" viewBox="0 0 1200 680">
<rect x="0" y="0" width="1200" height="680" fill="white"/>
<line x1="90" y1="50" x2="90" y2="600" stroke="#222"/>
<line x1="90" y1="600" x2="1170" y2="600" stroke="#222"/>
<text x="600.0" y="24" text-anchor="middle" font-size="20" font-family="sans-serif">minilamp: Session-Scoped Control Bandwidth</text>
<text x="600.0" y="664" text-anchor="middle" font-size="14" font-family="sans-serif">control/status category</text>
<text x="28" y="340.0" transform="rotate(-90 28 340.0)" text-anchor="middle" font-size="14" font-family="sans-serif">kbps</text>
<line x1="90" y1="600.0" x2="1170" y2="600.0" stroke="#ddd"/>
<text x="80" y="604.0" text-anchor="end" font-size="12" font-family="sans-serif">0.0</text>
<line x1="90" y1="490.0" x2="1170" y2="490.0" stroke="#ddd"/>
<text x="80" y="494.0" text-anchor="end" font-size="12" font-family="sans-serif">0.2</text>
<line x1="90" y1="380.0" x2="1170" y2="380.0" stroke="#ddd"/>
<text x="80" y="384.0" text-anchor="end" font-size="12" font-family="sans-serif">0.4</text>
<line x1="90" y1="270.0" x2="1170" y2="270.0" stroke="#ddd"/>
<text x="80" y="274.0" text-anchor="end" font-size="12" font-family="sans-serif">0.6</text>
<line x1="90" y1="160.0" x2="1170" y2="160.0" stroke="#ddd"/>
<text x="80" y="164.0" text-anchor="end" font-size="12" font-family="sans-serif">0.8</text>
<line x1="90" y1="50.0" x2="1170" y2="50.0" stroke="#ddd"/>
<text x="80" y="54.0" text-anchor="end" font-size="12" font-family="sans-serif">1.0</text>
<rect x="171.0" y="336.0" width="168.8" height="264.0" fill="#f58518"/>
<text x="255.4" y="330.0" text-anchor="middle" font-size="10" font-family="sans-serif">0.48</text>
<rect x="365.1" y="194.5" width="168.8" height="405.5" fill="#54a24b"/>
<text x="449.4" y="188.5" text-anchor="middle" font-size="10" font-family="sans-serif">0.74</text>
<text x="272.2" y="624" text-anchor="middle" font-size="11" font-family="sans-serif">drive commands</text>
<rect x="711.0" y="485.6" width="168.8" height="114.4" fill="#f58518"/>
<text x="795.4" y="479.6" text-anchor="middle" font-size="10" font-family="sans-serif">0.21</text>
<rect x="905.1" y="485.6" width="168.8" height="114.4" fill="#54a24b"/>
<text x="989.4" y="479.6" text-anchor="middle" font-size="10" font-family="sans-serif">0.21</text>
<text x="812.2" y="624" text-anchor="middle" font-size="11" font-family="sans-serif">control status</text>
<rect x="100" y="58" width="12" height="12" fill="#f58518"/>
<text x="118" y="69" font-size="12" font-family="sans-serif">median active second</text>
<rect x="300" y="58" width="12" height="12" fill="#54a24b"/>
<text x="318" y="69" font-size="12" font-family="sans-serif">p95 active second</text>
</svg>