<svg xmlns="http://www.w3.org/2000/svg" width="1200" height="680" viewBox="0 0 1200 680">
<rect x="0" y="0" width="1200" height="680" fill="white"/>
<line x1="90" y1="50" x2="90" y2="600" stroke="#222"/>
<line x1="90" y1="600" x2="1170" y2="600" stroke="#222"/>
<text x="600.0" y="24" text-anchor="middle" font-size="20" font-family="sans-serif">goob: Daily Heartbeat Dropout Counts</text>
<text x="600.0" y="664" text-anchor="middle" font-size="14" font-family="sans-serif">alaska local day</text>
<text x="28" y="340.0" transform="rotate(-90 28 340.0)" text-anchor="middle" font-size="14" font-family="sans-serif">dropout events</text>
<line x1="90" y1="600.0" x2="1170" y2="600.0" stroke="#ddd"/>
<text x="80" y="604.0" text-anchor="end" font-size="12" font-family="sans-serif">0</text>
<line x1="90" y1="490.0" x2="1170" y2="490.0" stroke="#ddd"/>
<text x="80" y="494.0" text-anchor="end" font-size="12" font-family="sans-serif">200</text>
<line x1="90" y1="380.0" x2="1170" y2="380.0" stroke="#ddd"/>
<text x="80" y="384.0" text-anchor="end" font-size="12" font-family="sans-serif">400</text>
<line x1="90" y1="270.0" x2="1170" y2="270.0" stroke="#ddd"/>
<text x="80" y="274.0" text-anchor="end" font-size="12" font-family="sans-serif">600</text>
<line x1="90" y1="160.0" x2="1170" y2="160.0" stroke="#ddd"/>
<text x="80" y="164.0" text-anchor="end" font-size="12" font-family="sans-serif">800</text>
<line x1="90" y1="50.0" x2="1170" y2="50.0" stroke="#ddd"/>
<text x="80" y="54.0" text-anchor="end" font-size="12" font-family="sans-serif">1000</text>
<rect x="108.0" y="598.4" width="72.0" height="1.7" fill="#d62728"/>
<text x="144.0" y="592.4" text-anchor="middle" font-size="10" font-family="sans-serif">3</text>
<text x="144.0" y="624" text-anchor="middle" font-size="11" font-family="sans-serif">03-05</text>
<rect x="216.0" y="598.4" width="72.0" height="1.7" fill="#d62728"/>
<text x="252.0" y="592.4" text-anchor="middle" font-size="10" font-family="sans-serif">3</text>
<text x="252.0" y="624" text-anchor="middle" font-size="11" font-family="sans-serif">03-06</text>
<rect x="324.0" y="595.0" width="72.0" height="4.9" fill="#d62728"/>
<text x="360.0" y="589.0" text-anchor="middle" font-size="10" font-family="sans-serif">9</text>
<text x="360.0" y="624" text-anchor="middle" font-size="11" font-family="sans-serif">03-07</text>
<rect x="432.0" y="592.9" width="72.0" height="7.1" fill="#d62728"/>
<text x="468.0" y="586.9" text-anchor="middle" font-size="10" font-family="sans-serif">13</text>
<text x="468.0" y="624" text-anchor="middle" font-size="11" font-family="sans-serif">03-08</text>
<rect x="540.0" y="576.4" width="72.0" height="23.6" fill="#d62728"/>
<text x="576.0" y="570.4" text-anchor="middle" font-size="10" font-family="sans-serif">43</text>
<text x="576.0" y="624" text-anchor="middle" font-size="11" font-family="sans-serif">03-09</text>
<rect x="648.0" y="591.2" width="72.0" height="8.8" fill="#d62728"/>
<text x="684.0" y="585.2" text-anchor="middle" font-size="10" font-family="sans-serif">16</text>
<text x="684.0" y="624" text-anchor="middle" font-size="11" font-family="sans-serif">03-10</text>
<rect x="756.0" y="581.3" width="72.0" height="18.7" fill="#d62728"/>
<text x="792.0" y="575.3" text-anchor="middle" font-size="10" font-family="sans-serif">34</text>
<text x="792.0" y="624" text-anchor="middle" font-size="11" font-family="sans-serif">03-11</text>
<rect x="864.0" y="585.1" width="72.0" height="14.8" fill="#d62728"/>
<text x="900.0" y="579.1" text-anchor="middle" font-size="10" font-family="sans-serif">27</text>
<text x="900.0" y="624" text-anchor="middle" font-size="11" font-family="sans-serif">03-12</text>
<rect x="972.0" y="167.1" width="72.0" height="432.9" fill="#d62728"/>
<text x="1008.0" y="161.1" text-anchor="middle" font-size="10" font-family="sans-serif">787</text>
<text x="1008.0" y="624" text-anchor="middle" font-size="11" font-family="sans-serif">03-15</text>
<rect x="1080.0" y="486.7" width="72.0" height="113.3" fill="#d62728"/>
<text x="1116.0" y="480.7" text-anchor="middle" font-size="10" font-family="sans-serif">206</text>
<text x="1116.0" y="624" text-anchor="middle" font-size="11" font-family="sans-serif">03-16</text>
</svg>