<svg xmlns="http://www.w3.org/2000/svg" width="1200" height="680" viewBox="0 0 1200 680">
<rect x="0" y="0" width="1200" height="680" fill="white"/>
<line x1="90" y1="50" x2="90" y2="600" stroke="#222"/>
<line x1="90" y1="600" x2="1170" y2="600" stroke="#222"/>
<text x="600.0" y="24" text-anchor="middle" font-size="20" font-family="sans-serif">goob: Idle-Online Bandwidth</text>
<text x="600.0" y="664" text-anchor="middle" font-size="14" font-family="sans-serif">idle category</text>
<text x="28" y="340.0" transform="rotate(-90 28 340.0)" text-anchor="middle" font-size="14" font-family="sans-serif">kbps</text>
<line x1="90" y1="600.0" x2="1170" y2="600.0" stroke="#ddd"/>
<text x="80" y="604.0" text-anchor="end" font-size="12" font-family="sans-serif">0.0</text>
<line x1="90" y1="490.0" x2="1170" y2="490.0" stroke="#ddd"/>
<text x="80" y="494.0" text-anchor="end" font-size="12" font-family="sans-serif">200.0</text>
<line x1="90" y1="380.0" x2="1170" y2="380.0" stroke="#ddd"/>
<text x="80" y="384.0" text-anchor="end" font-size="12" font-family="sans-serif">400.0</text>
<line x1="90" y1="270.0" x2="1170" y2="270.0" stroke="#ddd"/>
<text x="80" y="274.0" text-anchor="end" font-size="12" font-family="sans-serif">600.0</text>
<line x1="90" y1="160.0" x2="1170" y2="160.0" stroke="#ddd"/>
<text x="80" y="164.0" text-anchor="end" font-size="12" font-family="sans-serif">800.0</text>
<line x1="90" y1="50.0" x2="1170" y2="50.0" stroke="#ddd"/>
<text x="80" y="54.0" text-anchor="end" font-size="12" font-family="sans-serif">1000.0</text>
<rect x="122.4" y="599.6" width="67.5" height="0.4" fill="#f58518"/>
<text x="156.2" y="593.6" text-anchor="middle" font-size="10" font-family="sans-serif">0.64</text>
<rect x="200.0" y="599.6" width="67.5" height="0.4" fill="#54a24b"/>
<text x="233.8" y="593.6" text-anchor="middle" font-size="10" font-family="sans-serif">0.64</text>
<text x="162.9" y="624" text-anchor="middle" font-size="11" font-family="sans-serif">heartbeat</text>
<rect x="338.4" y="592.5" width="67.5" height="7.5" fill="#f58518"/>
<text x="372.1" y="586.5" text-anchor="middle" font-size="10" font-family="sans-serif">13.65</text>
<rect x="416.0" y="592.5" width="67.5" height="7.5" fill="#54a24b"/>
<text x="449.8" y="586.5" text-anchor="middle" font-size="10" font-family="sans-serif">13.65</text>
<text x="378.9" y="624" text-anchor="middle" font-size="11" font-family="sans-serif">control status</text>
<rect x="554.4" y="599.7" width="67.5" height="0.3" fill="#f58518"/>
<text x="588.1" y="593.7" text-anchor="middle" font-size="10" font-family="sans-serif">0.48</text>
<rect x="632.0" y="599.7" width="67.5" height="0.3" fill="#54a24b"/>
<text x="665.8" y="593.7" text-anchor="middle" font-size="10" font-family="sans-serif">0.48</text>
<text x="594.9" y="624" text-anchor="middle" font-size="11" font-family="sans-serif">drive commands</text>
<rect x="770.4" y="313.1" width="67.5" height="286.9" fill="#f58518"/>
<text x="804.1" y="307.1" text-anchor="middle" font-size="10" font-family="sans-serif">521.60</text>
<rect x="848.0" y="307.4" width="67.5" height="292.6" fill="#54a24b"/>
<text x="881.8" y="301.4" text-anchor="middle" font-size="10" font-family="sans-serif">532.03</text>
<text x="810.9" y="624" text-anchor="middle" font-size="11" font-family="sans-serif">audio up</text>
<rect x="986.4" y="500.7" width="67.5" height="99.3" fill="#f58518"/>
<text x="1020.1" y="494.7" text-anchor="middle" font-size="10" font-family="sans-serif">180.50</text>
<rect x="1064.0" y="497.4" width="67.5" height="102.6" fill="#54a24b"/>
<text x="1097.8" y="491.4" text-anchor="middle" font-size="10" font-family="sans-serif">186.58</text>
<text x="1026.9" y="624" text-anchor="middle" font-size="11" font-family="sans-serif">video</text>
<rect x="100" y="58" width="12" height="12" fill="#f58518"/>
<text x="118" y="69" font-size="12" font-family="sans-serif">median active second</text>
<rect x="300" y="58" width="12" height="12" fill="#54a24b"/>
<text x="318" y="69" font-size="12" font-family="sans-serif">p95 active second</text>
</svg>