<svg xmlns="http://www.w3.org/2000/svg" width="1200" height="680" viewBox="0 0 1200 680">
<rect x="0" y="0" width="1200" height="680" fill="white"/>
<line x1="90" y1="50" x2="90" y2="600" stroke="#222"/>
<line x1="90" y1="600" x2="1170" y2="600" stroke="#222"/>
<text x="600.0" y="24" text-anchor="middle" font-size="20" font-family="sans-serif">goob: Online Latency Distribution</text>
<text x="600.0" y="664" text-anchor="middle" font-size="14" font-family="sans-serif">latency ms</text>
<text x="28" y="340.0" transform="rotate(-90 28 340.0)" text-anchor="middle" font-size="14" font-family="sans-serif">samples per bucket</text>
<text x="600.0" y="46" text-anchor="middle" font-size="12" fill="#555" font-family="sans-serif">10 ms bucketed distribution rendered as a curve</text>
<line x1="90" y1="600.0" x2="1170" y2="600.0" stroke="#ddd"/>
<text x="80" y="604.0" text-anchor="end" font-size="12" font-family="sans-serif">0</text>
<line x1="90" y1="490.0" x2="1170" y2="490.0" stroke="#ddd"/>
<text x="80" y="494.0" text-anchor="end" font-size="12" font-family="sans-serif">400000</text>
<line x1="90" y1="380.0" x2="1170" y2="380.0" stroke="#ddd"/>
<text x="80" y="384.0" text-anchor="end" font-size="12" font-family="sans-serif">800000</text>
<line x1="90" y1="270.0" x2="1170" y2="270.0" stroke="#ddd"/>
<text x="80" y="274.0" text-anchor="end" font-size="12" font-family="sans-serif">1200000</text>
<line x1="90" y1="160.0" x2="1170" y2="160.0" stroke="#ddd"/>
<text x="80" y="164.0" text-anchor="end" font-size="12" font-family="sans-serif">1600000</text>
<line x1="90" y1="50.0" x2="1170" y2="50.0" stroke="#ddd"/>
<text x="80" y="54.0" text-anchor="end" font-size="12" font-family="sans-serif">2000000</text>
<polygon points="90.0,600.0 90.0,562.9 210.0,150.5 330.0,531.7 450.0,571.2 570.0,575.6 690.0,583.8 810.0,594.5 930.0,596.4 1050.0,597.4 1170.0,599.1 1170.0,600.0" fill="#1f77b4" fill-opacity="0.16" stroke="none"/>
<polyline fill="none" stroke="#1f77b4" stroke-width="3" stroke-linejoin="round" stroke-linecap="round" points="90.0,562.9 210.0,150.5 330.0,531.7 450.0,571.2 570.0,575.6 690.0,583.8 810.0,594.5 930.0,596.4 1050.0,597.4 1170.0,599.1"/>
<text x="90.0" y="624" text-anchor="middle" font-size="11" font-family="sans-serif">20</text>
<text x="210.0" y="624" text-anchor="middle" font-size="11" font-family="sans-serif">30</text>
<text x="450.0" y="624" text-anchor="middle" font-size="11" font-family="sans-serif">50</text>
<text x="570.0" y="624" text-anchor="middle" font-size="11" font-family="sans-serif">60</text>
<text x="690.0" y="624" text-anchor="middle" font-size="11" font-family="sans-serif">70</text>
<text x="810.0" y="624" text-anchor="middle" font-size="11" font-family="sans-serif">80</text>
<text x="1050.0" y="624" text-anchor="middle" font-size="11" font-family="sans-serif">100</text>
<text x="1170.0" y="624" text-anchor="middle" font-size="11" font-family="sans-serif">110</text>
</svg>