<svg xmlns="http://www.w3.org/2000/svg" width="1440" height="820" viewBox="0 0 1440 820">
<rect x="0" y="0" width="1440" height="820" fill="white"/>
<line x1="90" y1="55" x2="90" y2="650" stroke="#222"/>
<line x1="90" y1="650" x2="1400" y2="650" stroke="#222"/>
<text x="720.0" y="28" text-anchor="middle" font-size="22" font-family="sans-serif">goob: Router Impairment Audio Latency P95</text>
<text x="30" y="410.0" transform="rotate(-90 30 410.0)" text-anchor="middle" font-size="14" font-family="sans-serif">p95 latency ms</text>
<line x1="90" y1="650.0" x2="1400" y2="650.0" stroke="#ddd"/>
<text x="80" y="654.0" text-anchor="end" font-size="12" font-family="sans-serif">0</text>
<line x1="90" y1="531.0" x2="1400" y2="531.0" stroke="#ddd"/>
<text x="80" y="535.0" text-anchor="end" font-size="12" font-family="sans-serif">1000</text>
<line x1="90" y1="412.0" x2="1400" y2="412.0" stroke="#ddd"/>
<text x="80" y="416.0" text-anchor="end" font-size="12" font-family="sans-serif">2000</text>
<line x1="90" y1="293.0" x2="1400" y2="293.0" stroke="#ddd"/>
<text x="80" y="297.0" text-anchor="end" font-size="12" font-family="sans-serif">3000</text>
<line x1="90" y1="174.0" x2="1400" y2="174.0" stroke="#ddd"/>
<text x="80" y="178.0" text-anchor="end" font-size="12" font-family="sans-serif">4000</text>
<line x1="90" y1="55.0" x2="1400" y2="55.0" stroke="#ddd"/>
<text x="80" y="59.0" text-anchor="end" font-size="12" font-family="sans-serif">5000</text>
<rect x="109.6" y="606.0" width="54.3" height="44.0" fill="#4c78a8"/>
<text x="136.8" y="598.0" text-anchor="middle" font-size="10" font-family="sans-serif">37</text>
<text x="136.8" y="668.0" transform="rotate(45 136.8 668.0)" text-anchor="start" font-size="11" font-family="sans-serif">base-start</text>
<rect x="203.2" y="605.9" width="54.3" height="44.1" fill="#4c78a8"/>
<text x="230.4" y="597.9" text-anchor="middle" font-size="10" font-family="sans-serif">371</text>
<text x="230.4" y="668.0" transform="rotate(45 230.4 668.0)" text-anchor="start" font-size="11" font-family="sans-serif">1024k</text>
<rect x="296.8" y="561.8" width="54.3" height="88.2" fill="#4c78a8"/>
<text x="323.9" y="553.8" text-anchor="middle" font-size="10" font-family="sans-serif">741</text>
<text x="323.9" y="668.0" transform="rotate(45 323.9 668.0)" text-anchor="start" font-size="11" font-family="sans-serif">512k</text>
<rect x="390.4" y="341.3" width="54.3" height="308.7" fill="#4c78a8"/>
<text x="417.5" y="333.3" text-anchor="middle" font-size="10" font-family="sans-serif">2594</text>
<text x="417.5" y="668.0" transform="rotate(45 417.5 668.0)" text-anchor="start" font-size="11" font-family="sans-serif">256k</text>
<rect x="483.9" y="225.7" width="54.3" height="424.3" fill="#4c78a8"/>
<text x="511.1" y="217.7" text-anchor="middle" font-size="10" font-family="sans-serif">3566</text>
<text x="511.1" y="668.0" transform="rotate(45 511.1 668.0)" text-anchor="start" font-size="11" font-family="sans-serif">128k</text>
<rect x="577.5" y="195.2" width="54.3" height="454.8" fill="#4c78a8"/>
<text x="604.6" y="187.2" text-anchor="middle" font-size="10" font-family="sans-serif">3822</text>
<text x="604.6" y="668.0" transform="rotate(45 604.6 668.0)" text-anchor="start" font-size="11" font-family="sans-serif">64k</text>
<rect x="671.1" y="619.8" width="54.3" height="30.2" fill="#4c78a8"/>
<text x="698.2" y="611.8" text-anchor="middle" font-size="10" font-family="sans-serif">254</text>
<text x="698.2" y="668.0" transform="rotate(45 698.2 668.0)" text-anchor="start" font-size="11" font-family="sans-serif">loss 1%</text>
<rect x="764.6" y="619.2" width="54.3" height="30.8" fill="#4c78a8"/>
<text x="791.8" y="611.2" text-anchor="middle" font-size="10" font-family="sans-serif">259</text>
<text x="791.8" y="668.0" transform="rotate(45 791.8 668.0)" text-anchor="start" font-size="11" font-family="sans-serif">loss 2%</text>
<rect x="858.2" y="615.3" width="54.3" height="34.7" fill="#4c78a8"/>
<text x="885.4" y="607.3" text-anchor="middle" font-size="10" font-family="sans-serif">292</text>
<text x="885.4" y="668.0" transform="rotate(45 885.4 668.0)" text-anchor="start" font-size="11" font-family="sans-serif">loss 5%</text>
<rect x="951.8" y="578.7" width="54.3" height="71.3" fill="#4c78a8"/>
<text x="978.9" y="570.7" text-anchor="middle" font-size="10" font-family="sans-serif">599</text>
<text x="978.9" y="668.0" transform="rotate(45 978.9 668.0)" text-anchor="start" font-size="11" font-family="sans-serif">loss 10%</text>
<rect x="1045.4" y="351.1" width="54.3" height="298.9" fill="#4c78a8"/>
<text x="1072.5" y="343.1" text-anchor="middle" font-size="10" font-family="sans-serif">2512</text>
<text x="1072.5" y="668.0" transform="rotate(45 1072.5 668.0)" text-anchor="start" font-size="11" font-family="sans-serif">256k+1%</text>
<rect x="1138.9" y="336.3" width="54.3" height="313.7" fill="#4c78a8"/>
<text x="1166.1" y="328.3" text-anchor="middle" font-size="10" font-family="sans-serif">2636</text>
<text x="1166.1" y="668.0" transform="rotate(45 1166.1 668.0)" text-anchor="start" font-size="11" font-family="sans-serif">128k+2%</text>
<rect x="1232.5" y="565.4" width="54.3" height="84.6" fill="#4c78a8"/>
<text x="1259.6" y="557.4" text-anchor="middle" font-size="10" font-family="sans-serif">711</text>
<text x="1259.6" y="668.0" transform="rotate(45 1259.6 668.0)" text-anchor="start" font-size="11" font-family="sans-serif">64k+5%</text>
<rect x="1326.1" y="610.0" width="54.3" height="40.0" fill="#4c78a8"/>
<text x="1353.2" y="602.0" text-anchor="middle" font-size="10" font-family="sans-serif">336</text>
<text x="1353.2" y="668.0" transform="rotate(45 1353.2 668.0)" text-anchor="start" font-size="11" font-family="sans-serif">base-end</text>
</svg>