<svg xmlns="http://www.w3.org/2000/svg" width="1480" height="840" viewBox="0 0 1480 840">
<rect x="0" y="0" width="1480" height="840" fill="white"/>
<line x1="90" y1="55" x2="90" y2="670" stroke="#222"/>
<line x1="90" y1="670" x2="1440" y2="670" stroke="#222"/>
<text x="740.0" y="28" text-anchor="middle" font-size="22" font-family="sans-serif">Router Impairment Audio Latency P95: Fred vs Goob</text>
<text x="30" y="420.0" transform="rotate(-90 30 420.0)" text-anchor="middle" font-size="14" font-family="sans-serif">p95 latency ms</text>
<line x1="90" y1="670.0" x2="1440" y2="670.0" stroke="#ddd"/>
<text x="80" y="674.0" text-anchor="end" font-size="12" font-family="sans-serif">0</text>
<line x1="90" y1="547.0" x2="1440" y2="547.0" stroke="#ddd"/>
<text x="80" y="551.0" text-anchor="end" font-size="12" font-family="sans-serif">1000</text>
<line x1="90" y1="424.0" x2="1440" y2="424.0" stroke="#ddd"/>
<text x="80" y="428.0" text-anchor="end" font-size="12" font-family="sans-serif">2000</text>
<line x1="90" y1="301.0" x2="1440" y2="301.0" stroke="#ddd"/>
<text x="80" y="305.0" text-anchor="end" font-size="12" font-family="sans-serif">3000</text>
<line x1="90" y1="178.0" x2="1440" y2="178.0" stroke="#ddd"/>
<text x="80" y="182.0" text-anchor="end" font-size="12" font-family="sans-serif">4000</text>
<line x1="90" y1="55.0" x2="1440" y2="55.0" stroke="#ddd"/>
<text x="80" y="59.0" text-anchor="end" font-size="12" font-family="sans-serif">5000</text>
<text x="138.2" y="688.0" transform="rotate(45 138.2 688.0)" text-anchor="start" font-size="11" font-family="sans-serif">base-start</text>
<text x="234.6" y="688.0" transform="rotate(45 234.6 688.0)" text-anchor="start" font-size="11" font-family="sans-serif">1024k</text>
<text x="331.1" y="688.0" transform="rotate(45 331.1 688.0)" text-anchor="start" font-size="11" font-family="sans-serif">512k</text>
<text x="427.5" y="688.0" transform="rotate(45 427.5 688.0)" text-anchor="start" font-size="11" font-family="sans-serif">256k</text>
<text x="523.9" y="688.0" transform="rotate(45 523.9 688.0)" text-anchor="start" font-size="11" font-family="sans-serif">128k</text>
<text x="620.4" y="688.0" transform="rotate(45 620.4 688.0)" text-anchor="start" font-size="11" font-family="sans-serif">64k</text>
<text x="716.8" y="688.0" transform="rotate(45 716.8 688.0)" text-anchor="start" font-size="11" font-family="sans-serif">loss 1%</text>
<text x="813.2" y="688.0" transform="rotate(45 813.2 688.0)" text-anchor="start" font-size="11" font-family="sans-serif">loss 2%</text>
<text x="909.6" y="688.0" transform="rotate(45 909.6 688.0)" text-anchor="start" font-size="11" font-family="sans-serif">loss 5%</text>
<text x="1006.1" y="688.0" transform="rotate(45 1006.1 688.0)" text-anchor="start" font-size="11" font-family="sans-serif">loss 10%</text>
<text x="1102.5" y="688.0" transform="rotate(45 1102.5 688.0)" text-anchor="start" font-size="11" font-family="sans-serif">256k+1%</text>
<text x="1198.9" y="688.0" transform="rotate(45 1198.9 688.0)" text-anchor="start" font-size="11" font-family="sans-serif">128k+2%</text>
<text x="1295.4" y="688.0" transform="rotate(45 1295.4 688.0)" text-anchor="start" font-size="11" font-family="sans-serif">64k+5%</text>
<text x="1391.8" y="688.0" transform="rotate(45 1391.8 688.0)" text-anchor="start" font-size="11" font-family="sans-serif">base-end</text>
<circle cx="138.2" cy="641.3" r="4" fill="#1f77b4"/>
<circle cx="234.6" cy="641.2" r="4" fill="#1f77b4"/>
<circle cx="331.1" cy="596.7" r="4" fill="#1f77b4"/>
<circle cx="427.5" cy="381.3" r="4" fill="#1f77b4"/>
<circle cx="523.9" cy="279.0" r="4" fill="#1f77b4"/>
<circle cx="620.4" cy="317.9" r="4" fill="#1f77b4"/>
<circle cx="716.8" cy="641.7" r="4" fill="#1f77b4"/>
<circle cx="813.2" cy="636.4" r="4" fill="#1f77b4"/>
<circle cx="909.6" cy="640.7" r="4" fill="#1f77b4"/>
<circle cx="1006.1" cy="619.5" r="4" fill="#1f77b4"/>
<circle cx="1102.5" cy="363.8" r="4" fill="#1f77b4"/>
<circle cx="1198.9" cy="427.1" r="4" fill="#1f77b4"/>
<circle cx="1295.4" cy="198.1" r="4" fill="#1f77b4"/>
<circle cx="1391.8" cy="624.1" r="4" fill="#1f77b4"/>
<polyline fill="none" stroke="#1f77b4" stroke-width="2.5" points="138.2,641.3 234.6,641.2 331.1,596.7 427.5,381.3 523.9,279.0 620.4,317.9 716.8,641.7 813.2,636.4 909.6,640.7 1006.1,619.5 1102.5,363.8 1198.9,427.1 1295.4,198.1 1391.8,624.1"/>
<rect x="100" y="63" width="12" height="12" fill="#1f77b4"/>
<text x="118" y="74" font-size="12" font-family="sans-serif">fred</text>
<circle cx="138.2" cy="624.5" r="4" fill="#ff7f0e"/>
<circle cx="234.6" cy="624.4" r="4" fill="#ff7f0e"/>
<circle cx="331.1" cy="578.8" r="4" fill="#ff7f0e"/>
<circle cx="427.5" cy="350.9" r="4" fill="#ff7f0e"/>
<circle cx="523.9" cy="231.4" r="4" fill="#ff7f0e"/>
<circle cx="620.4" cy="199.9" r="4" fill="#ff7f0e"/>
<circle cx="716.8" cy="638.8" r="4" fill="#ff7f0e"/>
<circle cx="813.2" cy="638.1" r="4" fill="#ff7f0e"/>
<circle cx="909.6" cy="634.1" r="4" fill="#ff7f0e"/>
<circle cx="1006.1" cy="596.3" r="4" fill="#ff7f0e"/>
<circle cx="1102.5" cy="361.0" r="4" fill="#ff7f0e"/>
<circle cx="1198.9" cy="345.8" r="4" fill="#ff7f0e"/>
<circle cx="1295.4" cy="582.5" r="4" fill="#ff7f0e"/>
<circle cx="1391.8" cy="628.7" r="4" fill="#ff7f0e"/>
<polyline fill="none" stroke="#ff7f0e" stroke-width="2.5" points="138.2,624.5 234.6,624.4 331.1,578.8 427.5,350.9 523.9,231.4 620.4,199.9 716.8,638.8 813.2,638.1 909.6,634.1 1006.1,596.3 1102.5,361.0 1198.9,345.8 1295.4,582.5 1391.8,628.7"/>
<rect x="270" y="63" width="12" height="12" fill="#ff7f0e"/>
<text x="288" y="74" font-size="12" font-family="sans-serif">goob</text>
</svg>