<svg xmlns="http://www.w3.org/2000/svg" width="1200" height="680" viewBox="0 0 1200 680">
<rect x="0" y="0" width="1200" height="680" fill="white"/>
<line x1="90" y1="50" x2="90" y2="600" stroke="#222"/>
<line x1="90" y1="600" x2="1170" y2="600" stroke="#222"/>
<text x="600.0" y="24" text-anchor="middle" font-size="20" font-family="sans-serif">bumperbot: Daily Heartbeat Dropout Counts</text>
<text x="600.0" y="664" text-anchor="middle" font-size="14" font-family="sans-serif">alaska local day</text>
<text x="28" y="340.0" transform="rotate(-90 28 340.0)" text-anchor="middle" font-size="14" font-family="sans-serif">dropout events</text>
<line x1="90" y1="600.0" x2="1170" y2="600.0" stroke="#ddd"/>
<text x="80" y="604.0" text-anchor="end" font-size="12" font-family="sans-serif">0</text>
<line x1="90" y1="490.0" x2="1170" y2="490.0" stroke="#ddd"/>
<text x="80" y="494.0" text-anchor="end" font-size="12" font-family="sans-serif">4000</text>
<line x1="90" y1="380.0" x2="1170" y2="380.0" stroke="#ddd"/>
<text x="80" y="384.0" text-anchor="end" font-size="12" font-family="sans-serif">8000</text>
<line x1="90" y1="270.0" x2="1170" y2="270.0" stroke="#ddd"/>
<text x="80" y="274.0" text-anchor="end" font-size="12" font-family="sans-serif">12000</text>
<line x1="90" y1="160.0" x2="1170" y2="160.0" stroke="#ddd"/>
<text x="80" y="164.0" text-anchor="end" font-size="12" font-family="sans-serif">16000</text>
<line x1="90" y1="50.0" x2="1170" y2="50.0" stroke="#ddd"/>
<text x="80" y="54.0" text-anchor="end" font-size="12" font-family="sans-serif">20000</text>
<rect x="126.0" y="402.2" width="144.0" height="197.8" fill="#d62728"/>
<text x="198.0" y="396.2" text-anchor="middle" font-size="10" font-family="sans-serif">7192</text>
<text x="198.0" y="624" text-anchor="middle" font-size="11" font-family="sans-serif">03-05</text>
<rect x="342.0" y="517.2" width="144.0" height="82.8" fill="#d62728"/>
<text x="414.0" y="511.2" text-anchor="middle" font-size="10" font-family="sans-serif">3010</text>
<text x="414.0" y="624" text-anchor="middle" font-size="11" font-family="sans-serif">03-06</text>
<rect x="558.0" y="598.6" width="144.0" height="1.4" fill="#d62728"/>
<text x="630.0" y="592.6" text-anchor="middle" font-size="10" font-family="sans-serif">52</text>
<text x="630.0" y="624" text-anchor="middle" font-size="11" font-family="sans-serif">03-19</text>
<rect x="774.0" y="255.5" width="144.0" height="344.5" fill="#d62728"/>
<text x="846.0" y="249.5" text-anchor="middle" font-size="10" font-family="sans-serif">12527</text>
<text x="846.0" y="624" text-anchor="middle" font-size="11" font-family="sans-serif">03-20</text>
<rect x="990.0" y="597.6" width="144.0" height="2.4" fill="#d62728"/>
<text x="1062.0" y="591.6" text-anchor="middle" font-size="10" font-family="sans-serif">89</text>
<text x="1062.0" y="624" text-anchor="middle" font-size="11" font-family="sans-serif">03-23</text>
</svg>