<svg xmlns="http://www.w3.org/2000/svg" width="1200" height="680" viewBox="0 0 1200 680">
<rect x="0" y="0" width="1200" height="680" fill="white"/>
<line x1="90" y1="50" x2="90" y2="600" stroke="#222"/>
<line x1="90" y1="600" x2="1170" y2="600" stroke="#222"/>
<text x="600.0" y="24" text-anchor="middle" font-size="20" font-family="sans-serif">bumperbot: Heartbeat Dropout Outage Distribution</text>
<text x="600.0" y="664" text-anchor="middle" font-size="14" font-family="sans-serif">outage ms</text>
<text x="28" y="340.0" transform="rotate(-90 28 340.0)" text-anchor="middle" font-size="14" font-family="sans-serif">dropout events</text>
<line x1="90" y1="600.0" x2="1170" y2="600.0" stroke="#ddd"/>
<text x="80" y="604.0" text-anchor="end" font-size="12" font-family="sans-serif">0</text>
<line x1="90" y1="490.0" x2="1170" y2="490.0" stroke="#ddd"/>
<text x="80" y="494.0" text-anchor="end" font-size="12" font-family="sans-serif">10000</text>
<line x1="90" y1="380.0" x2="1170" y2="380.0" stroke="#ddd"/>
<text x="80" y="384.0" text-anchor="end" font-size="12" font-family="sans-serif">20000</text>
<line x1="90" y1="270.0" x2="1170" y2="270.0" stroke="#ddd"/>
<text x="80" y="274.0" text-anchor="end" font-size="12" font-family="sans-serif">30000</text>
<line x1="90" y1="160.0" x2="1170" y2="160.0" stroke="#ddd"/>
<text x="80" y="164.0" text-anchor="end" font-size="12" font-family="sans-serif">40000</text>
<line x1="90" y1="50.0" x2="1170" y2="50.0" stroke="#ddd"/>
<text x="80" y="54.0" text-anchor="end" font-size="12" font-family="sans-serif">50000</text>
<rect x="90.0" y="600.0" width="46.0" height="0.0" fill="#1f77b4"/>
<rect x="137.0" y="600.0" width="46.0" height="0.0" fill="#1f77b4"/>
<rect x="183.9" y="600.0" width="46.0" height="0.0" fill="#1f77b4"/>
<rect x="230.9" y="599.9" width="46.0" height="0.1" fill="#1f77b4"/>
<rect x="277.8" y="600.0" width="46.0" height="0.0" fill="#1f77b4"/>
<rect x="324.8" y="600.0" width="46.0" height="0.0" fill="#1f77b4"/>
<rect x="371.7" y="599.9" width="46.0" height="0.1" fill="#1f77b4"/>
<rect x="418.7" y="599.9" width="46.0" height="0.1" fill="#1f77b4"/>
<rect x="465.7" y="599.8" width="46.0" height="0.2" fill="#1f77b4"/>
<rect x="512.6" y="599.9" width="46.0" height="0.1" fill="#1f77b4"/>
<rect x="559.6" y="599.8" width="46.0" height="0.2" fill="#1f77b4"/>
<rect x="606.5" y="599.8" width="46.0" height="0.2" fill="#1f77b4"/>
<rect x="653.5" y="599.9" width="46.0" height="0.1" fill="#1f77b4"/>
<rect x="700.4" y="599.9" width="46.0" height="0.1" fill="#1f77b4"/>
<rect x="747.4" y="599.9" width="46.0" height="0.1" fill="#1f77b4"/>
<rect x="794.3" y="599.9" width="46.0" height="0.1" fill="#1f77b4"/>
<rect x="841.3" y="600.0" width="46.0" height="0.0" fill="#1f77b4"/>
<rect x="888.3" y="600.0" width="46.0" height="0.0" fill="#1f77b4"/>
<rect x="935.2" y="600.0" width="46.0" height="0.0" fill="#1f77b4"/>
<rect x="982.2" y="600.0" width="46.0" height="0.0" fill="#1f77b4"/>
<rect x="1029.1" y="600.0" width="46.0" height="0.0" fill="#1f77b4"/>
<rect x="1076.1" y="406.1" width="46.0" height="193.9" fill="#1f77b4"/>
<rect x="1123.0" y="543.8" width="46.0" height="56.2" fill="#1f77b4"/>
<text x="90.0" y="624" text-anchor="start" font-size="11" font-family="sans-serif">200</text>
<text x="230.9" y="624" text-anchor="start" font-size="11" font-family="sans-serif">500</text>
<text x="371.7" y="624" text-anchor="start" font-size="11" font-family="sans-serif">800</text>
<text x="512.6" y="624" text-anchor="start" font-size="11" font-family="sans-serif">1100</text>
<text x="700.4" y="624" text-anchor="start" font-size="11" font-family="sans-serif">1500</text>
<text x="841.3" y="624" text-anchor="start" font-size="11" font-family="sans-serif">1800</text>
<text x="982.2" y="624" text-anchor="start" font-size="11" font-family="sans-serif">2200</text>
<text x="1123.0" y="624" text-anchor="start" font-size="11" font-family="sans-serif">2800</text>
</svg>