<svg xmlns="http://www.w3.org/2000/svg" width="1200" height="680" viewBox="0 0 1200 680">
<rect x="0" y="0" width="1200" height="680" fill="white"/>
<line x1="90" y1="50" x2="90" y2="600" stroke="#222"/>
<line x1="90" y1="600" x2="1170" y2="600" stroke="#222"/>
<text x="600.0" y="24" text-anchor="middle" font-size="20" font-family="sans-serif">bumperbot: Idle-Online Bandwidth</text>
<text x="600.0" y="664" text-anchor="middle" font-size="14" font-family="sans-serif">idle category</text>
<text x="28" y="340.0" transform="rotate(-90 28 340.0)" text-anchor="middle" font-size="14" font-family="sans-serif">kbps</text>
<line x1="90" y1="600.0" x2="1170" y2="600.0" stroke="#ddd"/>
<text x="80" y="604.0" text-anchor="end" font-size="12" font-family="sans-serif">0.0</text>
<line x1="90" y1="490.0" x2="1170" y2="490.0" stroke="#ddd"/>
<text x="80" y="494.0" text-anchor="end" font-size="12" font-family="sans-serif">0.4</text>
<line x1="90" y1="380.0" x2="1170" y2="380.0" stroke="#ddd"/>
<text x="80" y="384.0" text-anchor="end" font-size="12" font-family="sans-serif">0.8</text>
<line x1="90" y1="270.0" x2="1170" y2="270.0" stroke="#ddd"/>
<text x="80" y="274.0" text-anchor="end" font-size="12" font-family="sans-serif">1.2</text>
<line x1="90" y1="160.0" x2="1170" y2="160.0" stroke="#ddd"/>
<text x="80" y="164.0" text-anchor="end" font-size="12" font-family="sans-serif">1.6</text>
<line x1="90" y1="50.0" x2="1170" y2="50.0" stroke="#ddd"/>
<text x="80" y="54.0" text-anchor="end" font-size="12" font-family="sans-serif">2.0</text>
<rect x="144.0" y="516.4" width="112.5" height="83.6" fill="#f58518"/>
<text x="200.2" y="510.4" text-anchor="middle" font-size="10" font-family="sans-serif">0.30</text>
<rect x="273.4" y="474.6" width="112.5" height="125.4" fill="#54a24b"/>
<text x="329.6" y="468.6" text-anchor="middle" font-size="10" font-family="sans-serif">0.46</text>
<text x="211.5" y="624" text-anchor="middle" font-size="11" font-family="sans-serif">heartbeat</text>
<rect x="504.0" y="567.0" width="112.5" height="33.0" fill="#f58518"/>
<text x="560.2" y="561.0" text-anchor="middle" font-size="10" font-family="sans-serif">0.12</text>
<rect x="633.4" y="567.0" width="112.5" height="33.0" fill="#54a24b"/>
<text x="689.6" y="561.0" text-anchor="middle" font-size="10" font-family="sans-serif">0.12</text>
<text x="571.5" y="624" text-anchor="middle" font-size="11" font-family="sans-serif">control status</text>
<rect x="864.0" y="402.0" width="112.5" height="198.0" fill="#f58518"/>
<text x="920.2" y="396.0" text-anchor="middle" font-size="10" font-family="sans-serif">0.72</text>
<rect x="993.4" y="186.4" width="112.5" height="413.6" fill="#54a24b"/>
<text x="1049.6" y="180.4" text-anchor="middle" font-size="10" font-family="sans-serif">1.50</text>
<text x="931.5" y="624" text-anchor="middle" font-size="11" font-family="sans-serif">drive commands</text>
<rect x="100" y="58" width="12" height="12" fill="#f58518"/>
<text x="118" y="69" font-size="12" font-family="sans-serif">median active second</text>
<rect x="300" y="58" width="12" height="12" fill="#54a24b"/>
<text x="318" y="69" font-size="12" font-family="sans-serif">p95 active second</text>
</svg>