<svg xmlns="http://www.w3.org/2000/svg" width="1200" height="680" viewBox="0 0 1200 680">
<rect x="0" y="0" width="1200" height="680" fill="white"/>
<line x1="90" y1="50" x2="90" y2="600" stroke="#222"/>
<line x1="90" y1="600" x2="1170" y2="600" stroke="#222"/>
<text x="600.0" y="24" text-anchor="middle" font-size="20" font-family="sans-serif">bumperbot: Online Latency Distribution</text>
<text x="600.0" y="664" text-anchor="middle" font-size="14" font-family="sans-serif">latency ms</text>
<text x="28" y="340.0" transform="rotate(-90 28 340.0)" text-anchor="middle" font-size="14" font-family="sans-serif">samples</text>
<line x1="90" y1="600.0" x2="1170" y2="600.0" stroke="#ddd"/>
<text x="80" y="604.0" text-anchor="end" font-size="12" font-family="sans-serif">0</text>
<line x1="90" y1="490.0" x2="1170" y2="490.0" stroke="#ddd"/>
<text x="80" y="494.0" text-anchor="end" font-size="12" font-family="sans-serif">400</text>
<line x1="90" y1="380.0" x2="1170" y2="380.0" stroke="#ddd"/>
<text x="80" y="384.0" text-anchor="end" font-size="12" font-family="sans-serif">800</text>
<line x1="90" y1="270.0" x2="1170" y2="270.0" stroke="#ddd"/>
<text x="80" y="274.0" text-anchor="end" font-size="12" font-family="sans-serif">1200</text>
<line x1="90" y1="160.0" x2="1170" y2="160.0" stroke="#ddd"/>
<text x="80" y="164.0" text-anchor="end" font-size="12" font-family="sans-serif">1600</text>
<line x1="90" y1="50.0" x2="1170" y2="50.0" stroke="#ddd"/>
<text x="80" y="54.0" text-anchor="end" font-size="12" font-family="sans-serif">2000</text>
<rect x="90.0" y="581.6" width="4.9" height="18.4" fill="#1f77b4"/>
<rect x="95.9" y="512.3" width="4.9" height="87.7" fill="#1f77b4"/>
<rect x="101.9" y="390.4" width="4.9" height="209.6" fill="#1f77b4"/>
<rect x="107.8" y="273.9" width="4.9" height="326.1" fill="#1f77b4"/>
<rect x="113.7" y="241.4" width="4.9" height="358.6" fill="#1f77b4"/>
<rect x="119.7" y="204.8" width="4.9" height="395.2" fill="#1f77b4"/>
<rect x="125.6" y="205.9" width="4.9" height="394.1" fill="#1f77b4"/>
<rect x="131.5" y="204.8" width="4.9" height="395.2" fill="#1f77b4"/>
<rect x="137.5" y="209.0" width="4.9" height="391.0" fill="#1f77b4"/>
<rect x="143.4" y="210.1" width="4.9" height="389.9" fill="#1f77b4"/>
<rect x="149.3" y="214.5" width="4.9" height="385.5" fill="#1f77b4"/>
<rect x="155.3" y="184.8" width="4.9" height="415.2" fill="#1f77b4"/>
<rect x="161.2" y="204.0" width="4.9" height="396.0" fill="#1f77b4"/>
<rect x="167.1" y="184.8" width="4.9" height="415.2" fill="#1f77b4"/>
<rect x="173.1" y="196.0" width="4.9" height="404.0" fill="#1f77b4"/>
<rect x="179.0" y="193.8" width="4.9" height="406.2" fill="#1f77b4"/>
<rect x="184.9" y="199.3" width="4.9" height="400.7" fill="#1f77b4"/>
<rect x="190.9" y="190.8" width="4.9" height="409.2" fill="#1f77b4"/>
<rect x="196.8" y="207.6" width="4.9" height="392.4" fill="#1f77b4"/>
<rect x="202.7" y="190.5" width="4.9" height="409.5" fill="#1f77b4"/>
<rect x="208.7" y="203.4" width="4.9" height="396.6" fill="#1f77b4"/>
<rect x="214.6" y="180.3" width="4.9" height="419.7" fill="#1f77b4"/>
<rect x="220.5" y="202.9" width="4.9" height="397.1" fill="#1f77b4"/>
<rect x="226.5" y="185.0" width="4.9" height="415.0" fill="#1f77b4"/>
<rect x="232.4" y="198.5" width="4.9" height="401.5" fill="#1f77b4"/>
<rect x="238.4" y="180.3" width="4.9" height="419.7" fill="#1f77b4"/>
<rect x="244.3" y="198.2" width="4.9" height="401.8" fill="#1f77b4"/>
<rect x="250.2" y="169.3" width="4.9" height="430.7" fill="#1f77b4"/>
<rect x="256.2" y="188.1" width="4.9" height="411.9" fill="#1f77b4"/>
<rect x="262.1" y="194.4" width="4.9" height="405.6" fill="#1f77b4"/>
<rect x="268.0" y="210.1" width="4.9" height="389.9" fill="#1f77b4"/>
<rect x="274.0" y="183.4" width="4.9" height="416.6" fill="#1f77b4"/>
<rect x="279.9" y="199.6" width="4.9" height="400.4" fill="#1f77b4"/>
<rect x="285.8" y="188.6" width="4.9" height="411.4" fill="#1f77b4"/>
<rect x="291.8" y="184.2" width="4.9" height="415.8" fill="#1f77b4"/>
<rect x="297.7" y="185.0" width="4.9" height="415.0" fill="#1f77b4"/>
<rect x="303.6" y="202.4" width="4.9" height="397.6" fill="#1f77b4"/>
<rect x="309.6" y="196.6" width="4.9" height="403.4" fill="#1f77b4"/>
<rect x="315.5" y="202.1" width="4.9" height="397.9" fill="#1f77b4"/>
<rect x="321.4" y="195.8" width="4.9" height="404.2" fill="#1f77b4"/>
<rect x="327.4" y="203.2" width="4.9" height="396.8" fill="#1f77b4"/>
<rect x="333.3" y="190.5" width="4.9" height="409.5" fill="#1f77b4"/>
<rect x="339.2" y="204.3" width="4.9" height="395.7" fill="#1f77b4"/>
<rect x="345.2" y="174.6" width="4.9" height="425.4" fill="#1f77b4"/>
<rect x="351.1" y="204.0" width="4.9" height="396.0" fill="#1f77b4"/>
<rect x="357.0" y="179.8" width="4.9" height="420.2" fill="#1f77b4"/>
<rect x="363.0" y="197.7" width="4.9" height="402.3" fill="#1f77b4"/>
<rect x="368.9" y="181.7" width="4.9" height="418.3" fill="#1f77b4"/>
<rect x="374.8" y="220.5" width="4.9" height="379.5" fill="#1f77b4"/>
<rect x="380.8" y="187.8" width="4.9" height="412.2" fill="#1f77b4"/>
<rect x="386.7" y="203.4" width="4.9" height="396.6" fill="#1f77b4"/>
<rect x="392.6" y="175.7" width="4.9" height="424.3" fill="#1f77b4"/>
<rect x="398.6" y="203.7" width="4.9" height="396.3" fill="#1f77b4"/>
<rect x="404.5" y="159.4" width="4.9" height="440.6" fill="#1f77b4"/>
<rect x="410.4" y="201.8" width="4.9" height="398.2" fill="#1f77b4"/>
<rect x="416.4" y="179.8" width="4.9" height="420.2" fill="#1f77b4"/>
<rect x="422.3" y="200.4" width="4.9" height="399.6" fill="#1f77b4"/>
<rect x="428.2" y="182.3" width="4.9" height="417.7" fill="#1f77b4"/>
<rect x="434.2" y="202.9" width="4.9" height="397.1" fill="#1f77b4"/>
<rect x="440.1" y="193.6" width="4.9" height="406.4" fill="#1f77b4"/>
<rect x="446.0" y="207.0" width="4.9" height="393.0" fill="#1f77b4"/>
<rect x="452.0" y="195.5" width="4.9" height="404.5" fill="#1f77b4"/>
<rect x="457.9" y="195.5" width="4.9" height="404.5" fill="#1f77b4"/>
<rect x="463.8" y="184.5" width="4.9" height="415.5" fill="#1f77b4"/>
<rect x="469.8" y="200.4" width="4.9" height="399.6" fill="#1f77b4"/>
<rect x="475.7" y="181.4" width="4.9" height="418.6" fill="#1f77b4"/>
<rect x="481.6" y="199.3" width="4.9" height="400.7" fill="#1f77b4"/>
<rect x="487.6" y="174.0" width="4.9" height="426.0" fill="#1f77b4"/>
<rect x="493.5" y="202.6" width="4.9" height="397.4" fill="#1f77b4"/>
<rect x="499.5" y="197.1" width="4.9" height="402.9" fill="#1f77b4"/>
<rect x="505.4" y="204.8" width="4.9" height="395.2" fill="#1f77b4"/>
<rect x="511.3" y="186.9" width="4.9" height="413.1" fill="#1f77b4"/>
<rect x="517.3" y="205.1" width="4.9" height="394.9" fill="#1f77b4"/>
<rect x="523.2" y="182.8" width="4.9" height="417.2" fill="#1f77b4"/>
<rect x="529.1" y="207.6" width="4.9" height="392.4" fill="#1f77b4"/>
<rect x="535.1" y="164.9" width="4.9" height="435.1" fill="#1f77b4"/>
<rect x="541.0" y="203.7" width="4.9" height="396.3" fill="#1f77b4"/>
<rect x="546.9" y="173.2" width="4.9" height="426.8" fill="#1f77b4"/>
<rect x="552.9" y="204.3" width="4.9" height="395.7" fill="#1f77b4"/>
<rect x="558.8" y="184.8" width="4.9" height="415.2" fill="#1f77b4"/>
<rect x="564.7" y="203.4" width="4.9" height="396.6" fill="#1f77b4"/>
<rect x="570.7" y="181.7" width="4.9" height="418.3" fill="#1f77b4"/>
<rect x="576.6" y="202.4" width="4.9" height="397.6" fill="#1f77b4"/>
<rect x="582.5" y="186.7" width="4.9" height="413.3" fill="#1f77b4"/>
<rect x="588.5" y="190.2" width="4.9" height="409.8" fill="#1f77b4"/>
<rect x="594.4" y="176.2" width="4.9" height="423.8" fill="#1f77b4"/>
<rect x="600.3" y="199.9" width="4.9" height="400.1" fill="#1f77b4"/>
<rect x="606.3" y="197.7" width="4.9" height="402.3" fill="#1f77b4"/>
<rect x="612.2" y="208.7" width="4.9" height="391.3" fill="#1f77b4"/>
<rect x="618.1" y="190.2" width="4.9" height="409.8" fill="#1f77b4"/>
<rect x="624.1" y="197.4" width="4.9" height="402.6" fill="#1f77b4"/>
<rect x="630.0" y="181.2" width="4.9" height="418.8" fill="#1f77b4"/>
<rect x="635.9" y="207.9" width="4.9" height="392.1" fill="#1f77b4"/>
<rect x="641.9" y="177.6" width="4.9" height="422.4" fill="#1f77b4"/>
<rect x="647.8" y="211.4" width="4.9" height="388.6" fill="#1f77b4"/>
<rect x="653.7" y="180.3" width="4.9" height="419.7" fill="#1f77b4"/>
<rect x="659.7" y="183.4" width="4.9" height="416.6" fill="#1f77b4"/>
<rect x="665.6" y="185.6" width="4.9" height="414.4" fill="#1f77b4"/>
<rect x="671.5" y="207.3" width="4.9" height="392.7" fill="#1f77b4"/>
<rect x="677.5" y="199.9" width="4.9" height="400.1" fill="#1f77b4"/>
<rect x="683.4" y="214.7" width="4.9" height="385.3" fill="#1f77b4"/>
<rect x="689.3" y="285.4" width="4.9" height="314.6" fill="#1f77b4"/>
<rect x="695.3" y="402.0" width="4.9" height="198.0" fill="#1f77b4"/>
<rect x="701.2" y="498.2" width="4.9" height="101.8" fill="#1f77b4"/>
<rect x="707.1" y="545.8" width="4.9" height="54.2" fill="#1f77b4"/>
<rect x="713.1" y="561.2" width="4.9" height="38.8" fill="#1f77b4"/>
<rect x="719.0" y="588.5" width="4.9" height="11.6" fill="#1f77b4"/>
<rect x="724.9" y="589.0" width="4.9" height="11.0" fill="#1f77b4"/>
<rect x="730.9" y="593.7" width="4.9" height="6.3" fill="#1f77b4"/>
<rect x="736.8" y="591.2" width="4.9" height="8.8" fill="#1f77b4"/>
<rect x="742.7" y="592.6" width="4.9" height="7.4" fill="#1f77b4"/>
<rect x="748.7" y="595.6" width="4.9" height="4.4" fill="#1f77b4"/>
<rect x="754.6" y="598.6" width="4.9" height="1.4" fill="#1f77b4"/>
<rect x="760.5" y="599.5" width="4.9" height="0.6" fill="#1f77b4"/>
<rect x="766.5" y="598.9" width="4.9" height="1.1" fill="#1f77b4"/>
<rect x="772.4" y="599.5" width="4.9" height="0.6" fill="#1f77b4"/>
<rect x="778.4" y="599.2" width="4.9" height="0.8" fill="#1f77b4"/>
<rect x="784.3" y="599.7" width="4.9" height="0.3" fill="#1f77b4"/>
<rect x="790.2" y="599.7" width="4.9" height="0.3" fill="#1f77b4"/>
<rect x="796.2" y="599.5" width="4.9" height="0.6" fill="#1f77b4"/>
<rect x="802.1" y="598.9" width="4.9" height="1.1" fill="#1f77b4"/>
<rect x="808.0" y="599.5" width="4.9" height="0.6" fill="#1f77b4"/>
<rect x="814.0" y="599.7" width="4.9" height="0.3" fill="#1f77b4"/>
<rect x="819.9" y="598.6" width="4.9" height="1.4" fill="#1f77b4"/>
<rect x="825.8" y="598.9" width="4.9" height="1.1" fill="#1f77b4"/>
<rect x="831.8" y="598.6" width="4.9" height="1.4" fill="#1f77b4"/>
<rect x="837.7" y="598.9" width="4.9" height="1.1" fill="#1f77b4"/>
<rect x="843.6" y="598.4" width="4.9" height="1.7" fill="#1f77b4"/>
<rect x="849.6" y="598.1" width="4.9" height="1.9" fill="#1f77b4"/>
<rect x="855.5" y="599.2" width="4.9" height="0.8" fill="#1f77b4"/>
<rect x="861.4" y="599.5" width="4.9" height="0.6" fill="#1f77b4"/>
<rect x="867.4" y="599.5" width="4.9" height="0.6" fill="#1f77b4"/>
<rect x="873.3" y="598.4" width="4.9" height="1.7" fill="#1f77b4"/>
<rect x="879.2" y="598.9" width="4.9" height="1.1" fill="#1f77b4"/>
<rect x="885.2" y="599.2" width="4.9" height="0.8" fill="#1f77b4"/>
<rect x="891.1" y="599.2" width="4.9" height="0.8" fill="#1f77b4"/>
<rect x="897.0" y="598.6" width="4.9" height="1.4" fill="#1f77b4"/>
<rect x="903.0" y="599.7" width="4.9" height="0.3" fill="#1f77b4"/>
<rect x="908.9" y="599.2" width="4.9" height="0.8" fill="#1f77b4"/>
<rect x="914.8" y="598.6" width="4.9" height="1.4" fill="#1f77b4"/>
<rect x="920.8" y="599.2" width="4.9" height="0.8" fill="#1f77b4"/>
<rect x="926.7" y="599.2" width="4.9" height="0.8" fill="#1f77b4"/>
<rect x="932.6" y="599.5" width="4.9" height="0.6" fill="#1f77b4"/>
<rect x="938.6" y="599.5" width="4.9" height="0.6" fill="#1f77b4"/>
<rect x="944.5" y="599.7" width="4.9" height="0.3" fill="#1f77b4"/>
<rect x="950.4" y="599.7" width="4.9" height="0.3" fill="#1f77b4"/>
<rect x="956.4" y="599.5" width="4.9" height="0.6" fill="#1f77b4"/>
<rect x="962.3" y="598.6" width="4.9" height="1.4" fill="#1f77b4"/>
<rect x="968.2" y="599.2" width="4.9" height="0.8" fill="#1f77b4"/>
<rect x="974.2" y="598.6" width="4.9" height="1.4" fill="#1f77b4"/>
<rect x="980.1" y="599.7" width="4.9" height="0.3" fill="#1f77b4"/>
<rect x="986.0" y="599.2" width="4.9" height="0.8" fill="#1f77b4"/>
<rect x="992.0" y="598.9" width="4.9" height="1.1" fill="#1f77b4"/>
<rect x="997.9" y="599.5" width="4.9" height="0.6" fill="#1f77b4"/>
<rect x="1003.8" y="598.6" width="4.9" height="1.4" fill="#1f77b4"/>
<rect x="1009.8" y="598.4" width="4.9" height="1.7" fill="#1f77b4"/>
<rect x="1015.7" y="599.7" width="4.9" height="0.3" fill="#1f77b4"/>
<rect x="1021.6" y="599.5" width="4.9" height="0.6" fill="#1f77b4"/>
<rect x="1027.6" y="599.5" width="4.9" height="0.6" fill="#1f77b4"/>
<rect x="1033.5" y="598.9" width="4.9" height="1.1" fill="#1f77b4"/>
<rect x="1039.5" y="598.9" width="4.9" height="1.1" fill="#1f77b4"/>
<rect x="1045.4" y="599.5" width="4.9" height="0.6" fill="#1f77b4"/>
<rect x="1051.3" y="599.5" width="4.9" height="0.6" fill="#1f77b4"/>
<rect x="1057.3" y="599.2" width="4.9" height="0.8" fill="#1f77b4"/>
<rect x="1063.2" y="598.9" width="4.9" height="1.1" fill="#1f77b4"/>
<rect x="1069.1" y="598.6" width="4.9" height="1.4" fill="#1f77b4"/>
<rect x="1075.1" y="599.5" width="4.9" height="0.6" fill="#1f77b4"/>
<rect x="1081.0" y="599.7" width="4.9" height="0.3" fill="#1f77b4"/>
<rect x="1086.9" y="598.4" width="4.9" height="1.7" fill="#1f77b4"/>
<rect x="1092.9" y="599.7" width="4.9" height="0.3" fill="#1f77b4"/>
<rect x="1098.8" y="598.6" width="4.9" height="1.4" fill="#1f77b4"/>
<rect x="1104.7" y="599.2" width="4.9" height="0.8" fill="#1f77b4"/>
<rect x="1110.7" y="599.7" width="4.9" height="0.3" fill="#1f77b4"/>
<rect x="1116.6" y="599.5" width="4.9" height="0.6" fill="#1f77b4"/>
<rect x="1122.5" y="599.5" width="4.9" height="0.6" fill="#1f77b4"/>
<rect x="1128.5" y="598.9" width="4.9" height="1.1" fill="#1f77b4"/>
<rect x="1134.4" y="599.5" width="4.9" height="0.6" fill="#1f77b4"/>
<rect x="1140.3" y="599.5" width="4.9" height="0.6" fill="#1f77b4"/>
<rect x="1146.3" y="599.5" width="4.9" height="0.6" fill="#1f77b4"/>
<rect x="1152.2" y="599.5" width="4.9" height="0.6" fill="#1f77b4"/>
<rect x="1158.1" y="599.5" width="4.9" height="0.6" fill="#1f77b4"/>
<rect x="1164.1" y="599.7" width="4.9" height="0.3" fill="#1f77b4"/>
<text x="90.0" y="624" text-anchor="start" font-size="11" font-family="sans-serif">30</text>
<text x="244.3" y="624" text-anchor="start" font-size="11" font-family="sans-serif">290</text>
<text x="398.6" y="624" text-anchor="start" font-size="11" font-family="sans-serif">550</text>
<text x="552.9" y="624" text-anchor="start" font-size="11" font-family="sans-serif">810</text>
<text x="701.2" y="624" text-anchor="start" font-size="11" font-family="sans-serif">1060</text>
<text x="855.5" y="624" text-anchor="start" font-size="11" font-family="sans-serif">1330</text>
<text x="1009.8" y="624" text-anchor="start" font-size="11" font-family="sans-serif">1670</text>
<text x="1164.1" y="624" text-anchor="start" font-size="11" font-family="sans-serif">2010</text>
</svg>