<svg xmlns="http://www.w3.org/2000/svg" width="1440" height="820" viewBox="0 0 1440 820">
<rect x="0" y="0" width="1440" height="820" fill="white"/>
<line x1="90" y1="55" x2="90" y2="650" stroke="#222"/>
<line x1="90" y1="650" x2="1400" y2="650" stroke="#222"/>
<text x="720.0" y="28" text-anchor="middle" font-size="22" font-family="sans-serif">bumperbot: Router Impairment Drive Command Rate</text>
<text x="30" y="410.0" transform="rotate(-90 30 410.0)" text-anchor="middle" font-size="14" font-family="sans-serif">commands per second</text>
<line x1="90" y1="650.0" x2="1400" y2="650.0" stroke="#ddd"/>
<text x="80" y="654.0" text-anchor="end" font-size="12" font-family="sans-serif">0</text>
<line x1="90" y1="531.0" x2="1400" y2="531.0" stroke="#ddd"/>
<text x="80" y="535.0" text-anchor="end" font-size="12" font-family="sans-serif">2</text>
<line x1="90" y1="412.0" x2="1400" y2="412.0" stroke="#ddd"/>
<text x="80" y="416.0" text-anchor="end" font-size="12" font-family="sans-serif">4</text>
<line x1="90" y1="293.0" x2="1400" y2="293.0" stroke="#ddd"/>
<text x="80" y="297.0" text-anchor="end" font-size="12" font-family="sans-serif">6</text>
<line x1="90" y1="174.0" x2="1400" y2="174.0" stroke="#ddd"/>
<text x="80" y="178.0" text-anchor="end" font-size="12" font-family="sans-serif">8</text>
<line x1="90" y1="55.0" x2="1400" y2="55.0" stroke="#ddd"/>
<text x="80" y="59.0" text-anchor="end" font-size="12" font-family="sans-serif">10</text>
<rect x="109.6" y="171.8" width="54.3" height="478.2" fill="#8c564b"/>
<text x="136.8" y="163.8" text-anchor="middle" font-size="10" font-family="sans-serif">8.04</text>
<text x="136.8" y="668.0" transform="rotate(45 136.8 668.0)" text-anchor="start" font-size="11" font-family="sans-serif">base-start</text>
<rect x="203.2" y="175.4" width="54.3" height="474.6" fill="#8c564b"/>
<text x="230.4" y="167.4" text-anchor="middle" font-size="10" font-family="sans-serif">7.98</text>
<text x="230.4" y="668.0" transform="rotate(45 230.4 668.0)" text-anchor="start" font-size="11" font-family="sans-serif">1024k</text>
<rect x="296.8" y="170.5" width="54.3" height="479.5" fill="#8c564b"/>
<text x="323.9" y="162.5" text-anchor="middle" font-size="10" font-family="sans-serif">8.06</text>
<text x="323.9" y="668.0" transform="rotate(45 323.9 668.0)" text-anchor="start" font-size="11" font-family="sans-serif">512k</text>
<rect x="390.4" y="170.2" width="54.3" height="479.8" fill="#8c564b"/>
<text x="417.5" y="162.2" text-anchor="middle" font-size="10" font-family="sans-serif">8.06</text>
<text x="417.5" y="668.0" transform="rotate(45 417.5 668.0)" text-anchor="start" font-size="11" font-family="sans-serif">256k</text>
<rect x="483.9" y="417.3" width="54.3" height="232.7" fill="#8c564b"/>
<text x="511.1" y="409.3" text-anchor="middle" font-size="10" font-family="sans-serif">3.91</text>
<text x="511.1" y="668.0" transform="rotate(45 511.1 668.0)" text-anchor="start" font-size="11" font-family="sans-serif">128k</text>
<rect x="577.5" y="171.2" width="54.3" height="478.8" fill="#8c564b"/>
<text x="604.6" y="163.2" text-anchor="middle" font-size="10" font-family="sans-serif">8.05</text>
<text x="604.6" y="668.0" transform="rotate(45 604.6 668.0)" text-anchor="start" font-size="11" font-family="sans-serif">64k</text>
<rect x="671.1" y="176.2" width="54.3" height="473.8" fill="#8c564b"/>
<text x="698.2" y="168.2" text-anchor="middle" font-size="10" font-family="sans-serif">7.96</text>
<text x="698.2" y="668.0" transform="rotate(45 698.2 668.0)" text-anchor="start" font-size="11" font-family="sans-serif">loss 1%</text>
<rect x="764.6" y="170.4" width="54.3" height="479.6" fill="#8c564b"/>
<text x="791.8" y="162.4" text-anchor="middle" font-size="10" font-family="sans-serif">8.06</text>
<text x="791.8" y="668.0" transform="rotate(45 791.8 668.0)" text-anchor="start" font-size="11" font-family="sans-serif">loss 2%</text>
<rect x="858.2" y="170.2" width="54.3" height="479.8" fill="#8c564b"/>
<text x="885.4" y="162.2" text-anchor="middle" font-size="10" font-family="sans-serif">8.06</text>
<text x="885.4" y="668.0" transform="rotate(45 885.4 668.0)" text-anchor="start" font-size="11" font-family="sans-serif">loss 5%</text>
<rect x="951.8" y="173.5" width="54.3" height="476.5" fill="#8c564b"/>
<text x="978.9" y="165.5" text-anchor="middle" font-size="10" font-family="sans-serif">8.01</text>
<text x="978.9" y="668.0" transform="rotate(45 978.9 668.0)" text-anchor="start" font-size="11" font-family="sans-serif">loss 10%</text>
<rect x="1045.4" y="173.2" width="54.3" height="476.8" fill="#8c564b"/>
<text x="1072.5" y="165.2" text-anchor="middle" font-size="10" font-family="sans-serif">8.01</text>
<text x="1072.5" y="668.0" transform="rotate(45 1072.5 668.0)" text-anchor="start" font-size="11" font-family="sans-serif">256k+1%</text>
<rect x="1138.9" y="172.1" width="54.3" height="477.9" fill="#8c564b"/>
<text x="1166.1" y="164.1" text-anchor="middle" font-size="10" font-family="sans-serif">8.03</text>
<text x="1166.1" y="668.0" transform="rotate(45 1166.1 668.0)" text-anchor="start" font-size="11" font-family="sans-serif">128k+2%</text>
<rect x="1232.5" y="169.4" width="54.3" height="480.6" fill="#8c564b"/>
<text x="1259.6" y="161.4" text-anchor="middle" font-size="10" font-family="sans-serif">8.08</text>
<text x="1259.6" y="668.0" transform="rotate(45 1259.6 668.0)" text-anchor="start" font-size="11" font-family="sans-serif">64k+5%</text>
<rect x="1326.1" y="181.4" width="54.3" height="468.6" fill="#8c564b"/>
<text x="1353.2" y="173.4" text-anchor="middle" font-size="10" font-family="sans-serif">7.88</text>
<text x="1353.2" y="668.0" transform="rotate(45 1353.2 668.0)" text-anchor="start" font-size="11" font-family="sans-serif">base-end</text>
</svg>