<svg xmlns="http://www.w3.org/2000/svg" width="1200" height="680" viewBox="0 0 1200 680">
<rect x="0" y="0" width="1200" height="680" fill="white"/>
<line x1="90" y1="50" x2="90" y2="600" stroke="#222"/>
<line x1="90" y1="600" x2="1170" y2="600" stroke="#222"/>
<text x="600.0" y="24" text-anchor="middle" font-size="20" font-family="sans-serif">bumperbot: Session-Only Active-Hour Bandwidth Trend</text>
<text x="600.0" y="664" text-anchor="middle" font-size="14" font-family="sans-serif">chronological active-hour bucket</text>
<text x="28" y="340.0" transform="rotate(-90 28 340.0)" text-anchor="middle" font-size="14" font-family="sans-serif">kbps</text>
<line x1="90" y1="600.0" x2="1170" y2="600.0" stroke="#ddd"/>
<text x="80" y="604.0" text-anchor="end" font-size="12" font-family="sans-serif">0.0</text>
<line x1="90" y1="490.0" x2="1170" y2="490.0" stroke="#ddd"/>
<text x="80" y="494.0" text-anchor="end" font-size="12" font-family="sans-serif">0.0</text>
<line x1="90" y1="380.0" x2="1170" y2="380.0" stroke="#ddd"/>
<text x="80" y="384.0" text-anchor="end" font-size="12" font-family="sans-serif">0.0</text>
<line x1="90" y1="270.0" x2="1170" y2="270.0" stroke="#ddd"/>
<text x="80" y="274.0" text-anchor="end" font-size="12" font-family="sans-serif">0.0</text>
<line x1="90" y1="160.0" x2="1170" y2="160.0" stroke="#ddd"/>
<text x="80" y="164.0" text-anchor="end" font-size="12" font-family="sans-serif">0.0</text>
<line x1="90" y1="50.0" x2="1170" y2="50.0" stroke="#ddd"/>
<text x="80" y="54.0" text-anchor="end" font-size="12" font-family="sans-serif">0.0</text>
<text x="630.0" y="624" text-anchor="middle" font-size="11" font-family="sans-serif">1</text>
<polyline fill="none" stroke="#d62728" stroke-width="2" points="630.0,358.1"/>
<rect x="100" y="58" width="12" height="12" fill="#d62728"/>
<text x="118" y="69" font-size="12" font-family="sans-serif">drive commands</text>
<polyline fill="none" stroke="#9467bd" stroke-width="2" points="630.0,574.3"/>
<rect x="270" y="58" width="12" height="12" fill="#9467bd"/>
<text x="288" y="69" font-size="12" font-family="sans-serif">control status</text>
</svg>